<?xml version="1.0" encoding="UTF-8"?>
<svg id="Capa_2" data-name="Capa 2" xmlns="http://www.w3.org/2000/svg" xmlns:xlink="http://www.w3.org/1999/xlink" viewBox="0 0 150 135.54">
  <defs>
    <style>
      .cls-1 {
        fill: url(#linear-gradient);
      }

      .cls-1, .cls-2, .cls-3, .cls-4 {
        stroke-width: 0px;
      }

      .cls-2 {
        fill: #c39c5c;
      }

      .cls-3 {
        fill: url(#linear-gradient-2);
      }

      .cls-4 {
        fill: url(#linear-gradient-3);
      }
    </style>
    <linearGradient id="linear-gradient" x1="12.74" y1="94.36" x2="12.74" y2="10.82" gradientUnits="userSpaceOnUse">
      <stop offset="0" stop-color="#855d25"/>
      <stop offset="1" stop-color="#f0ce92"/>
    </linearGradient>
    <linearGradient id="linear-gradient-2" x1="112.07" y1="77.39" x2="112.07" y2="20.8" xlink:href="#linear-gradient"/>
    <linearGradient id="linear-gradient-3" x1="91.89" y1="97.45" x2="91.89" y2="-.08" xlink:href="#linear-gradient"/>
  </defs>
  <g id="Layer_1" data-name="Layer 1">
    <g>
      <g>
        <path class="cls-2" d="m9.07,120.25c-.68-.38-1.21-.9-1.59-1.58-.38-.67-.57-1.44-.57-2.3s.19-1.64.57-2.32.91-1.21,1.59-1.59,1.46-.58,2.32-.58c.6,0,1.16.11,1.68.32.52.21.99.52,1.41.91l-.7.9c-.7-.65-1.5-.98-2.4-.98-.64,0-1.2.14-1.69.42-.49.28-.87.67-1.15,1.16-.27.5-.41,1.07-.41,1.72s.14,1.23.42,1.74c.28.51.66.9,1.16,1.18.5.28,1.06.42,1.7.42.95,0,1.76-.31,2.44-.94l.71.9c-.82.79-1.88,1.19-3.18,1.19-.87,0-1.64-.19-2.32-.56Z"/>
        <path class="cls-2" d="m21.79,120.26c-.66-.38-1.17-.9-1.54-1.58-.37-.67-.55-1.45-.55-2.31s.18-1.67.55-2.35c.37-.68.89-1.21,1.56-1.59.67-.38,1.44-.56,2.31-.56s1.59.19,2.25.56c.66.38,1.17.9,1.54,1.58.37.67.55,1.45.55,2.31s-.18,1.67-.55,2.35c-.37.68-.89,1.21-1.56,1.59-.67.38-1.44.56-2.31.56s-1.59-.19-2.25-.56Zm3.91-.98c.48-.28.85-.68,1.12-1.18.27-.51.41-1.08.41-1.73s-.13-1.26-.39-1.77c-.26-.51-.63-.91-1.11-1.19-.48-.28-1.02-.42-1.64-.42s-1.16.14-1.64.42c-.48.28-.86.67-1.12,1.18-.27.5-.4,1.08-.4,1.74s.13,1.25.4,1.76c.27.51.63.91,1.11,1.2.47.29,1.02.43,1.63.43s1.16-.14,1.64-.42Z"/>
        <path class="cls-2" d="m39.83,120.64l-2.65-3.02h-1.4v3.02h-1.2v-8.59h3.42c.59,0,1.11.11,1.56.34.45.23.8.55,1.04.97s.37.9.37,1.46c0,.73-.21,1.34-.63,1.83-.42.49-.99.8-1.71.91l2.71,3.07h-1.51Zm-.54-7.02c-.32-.3-.76-.45-1.32-.45h-2.18v3.35h2.2c.56,0,.99-.15,1.31-.44s.48-.7.48-1.21-.16-.95-.48-1.24Z"/>
        <path class="cls-2" d="m50.8,112.05c.66,0,1.22.14,1.67.41.45.27.79.63,1.01,1.07.22.45.33.93.33,1.45s-.11,1.02-.33,1.47c-.22.45-.56.81-1.01,1.08-.45.27-1.01.41-1.67.41h-2.38v2.69h-1.18v-8.59h3.56Zm-.06,4.8c.63,0,1.1-.18,1.41-.53.31-.35.47-.79.47-1.3s-.16-.98-.47-1.33c-.31-.36-.78-.53-1.41-.53h-2.32v3.69h2.32Z"/>
        <path class="cls-2" d="m61.21,120.26c-.66-.38-1.17-.9-1.54-1.58-.37-.67-.55-1.45-.55-2.31s.18-1.67.55-2.35c.37-.68.89-1.21,1.56-1.59.67-.38,1.44-.56,2.31-.56s1.59.19,2.25.56c.66.38,1.17.9,1.54,1.58.37.67.55,1.45.55,2.31s-.18,1.67-.55,2.35c-.37.68-.89,1.21-1.56,1.59-.67.38-1.44.56-2.31.56s-1.59-.19-2.25-.56Zm3.91-.98c.48-.28.85-.68,1.12-1.18.27-.51.41-1.08.41-1.73s-.13-1.26-.39-1.77-.63-.91-1.11-1.19c-.48-.28-1.02-.42-1.64-.42s-1.16.14-1.64.42c-.48.28-.86.67-1.12,1.18-.27.5-.4,1.08-.4,1.74s.13,1.25.4,1.76c.27.51.64.91,1.11,1.2s1.02.43,1.63.43,1.16-.14,1.64-.42Z"/>
        <path class="cls-2" d="m79.24,120.64l-2.65-3.02h-1.4v3.02h-1.2v-8.59h3.42c.59,0,1.11.11,1.56.34.45.23.8.55,1.04.97.25.42.37.9.37,1.46,0,.73-.21,1.34-.63,1.83-.42.49-.99.8-1.71.91l2.71,3.07h-1.51Zm-.54-7.02c-.32-.3-.76-.45-1.32-.45h-2.18v3.35h2.2c.55,0,.99-.15,1.31-.44.32-.29.48-.7.48-1.21s-.16-.95-.48-1.24Z"/>
        <path class="cls-2" d="m94.65,120.64h-1.3l-.86-1.89h-4.73l-.85,1.89h-1.29l3.85-8.59h1.32l3.85,8.59Zm-4.53-7.4c-.17.42-.4.95-.69,1.61l-1.2,2.82h3.78l-1.2-2.85-.15-.34c-.29-.65-.46-1.07-.52-1.24h-.03Z"/>
        <path class="cls-2" d="m98.54,112.05h6.89v1.08h-2.86v7.51h-1.18v-7.51h-2.86v-1.08Z"/>
        <path class="cls-2" d="m112.31,120.64h-1.18v-8.59h1.18v8.59Z"/>
        <path class="cls-2" d="m121.5,120.64l-3.47-8.59h1.29l1.8,4.51c.33.83.67,1.73,1.02,2.69h.02c.21-.6.54-1.5,1.01-2.69l1.8-4.51h1.26l-3.47,8.59h-1.26Z"/>
        <path class="cls-2" d="m133.21,120.26c-.66-.38-1.17-.9-1.54-1.58-.37-.67-.55-1.45-.55-2.31s.18-1.67.55-2.35c.37-.68.89-1.21,1.56-1.59.67-.38,1.44-.56,2.31-.56s1.59.19,2.25.56c.66.38,1.17.9,1.54,1.58.37.67.55,1.45.55,2.31s-.18,1.67-.55,2.35c-.37.68-.89,1.21-1.56,1.59-.67.38-1.44.56-2.31.56s-1.59-.19-2.25-.56Zm3.91-.98c.48-.28.85-.68,1.12-1.18.27-.51.41-1.08.41-1.73s-.13-1.26-.39-1.77c-.26-.51-.63-.91-1.11-1.19-.48-.28-1.02-.42-1.64-.42s-1.16.14-1.64.42c-.48.28-.86.67-1.12,1.18-.27.5-.4,1.08-.4,1.74s.13,1.25.4,1.76c.27.51.63.91,1.11,1.2.47.29,1.02.43,1.63.43s1.16-.14,1.64-.42Z"/>
        <path class="cls-2" d="m28.18,128.04c-.14-.14-.21-.32-.21-.53s.07-.4.21-.55c.14-.14.33-.21.55-.21s.42.07.56.21c.15.14.22.32.22.55s-.07.39-.22.53c-.15.14-.34.21-.56.21s-.4-.07-.55-.21Zm1.13,7.32h-1.14v-6.06h1.14v6.06Z"/>
        <path class="cls-2" d="m35.53,135.36v-6.06h1.07c0,.31-.01.69-.04,1.13h.04c.18-.4.46-.71.83-.92s.82-.32,1.34-.32c.83,0,1.46.24,1.89.72.44.48.66,1.16.66,2.04v3.41h-1.14v-3.31c0-.58-.14-1.03-.41-1.35-.27-.32-.68-.48-1.22-.48-.36,0-.68.08-.97.25-.29.17-.51.4-.67.69-.16.29-.24.62-.24.98v3.23h-1.14Z"/>
        <path class="cls-2" d="m55.39,126.77h1.19v8.59h-1.19v-5.8c0-.21,0-.45.02-.71h-.02c-.21.32-.4.61-.58.87l-2.49,3.75h-.47l-2.48-3.74c-.21-.34-.4-.61-.58-.83h-.02c.02.27.02.51.02.72v5.74h-1.18v-8.59h1.18l3.3,5,3.29-5Z"/>
        <path class="cls-2" d="m64.78,134.98c-.66-.38-1.17-.9-1.54-1.58-.37-.67-.55-1.45-.55-2.31s.18-1.67.55-2.35c.37-.68.89-1.21,1.56-1.59.67-.38,1.44-.56,2.31-.56s1.59.19,2.25.56c.66.38,1.17.9,1.54,1.58.37.67.55,1.45.55,2.31s-.18,1.67-.55,2.35c-.37.68-.89,1.21-1.56,1.59-.67.38-1.44.56-2.31.56s-1.59-.19-2.25-.56Zm3.91-.98c.48-.28.85-.68,1.12-1.18.27-.51.41-1.08.41-1.73s-.13-1.26-.39-1.77-.63-.91-1.11-1.19c-.48-.28-1.02-.42-1.64-.42s-1.16.14-1.64.42c-.48.28-.86.67-1.12,1.18-.27.5-.4,1.08-.4,1.74s.13,1.25.4,1.76c.27.51.64.91,1.11,1.2s1.02.43,1.63.43,1.16-.14,1.64-.42Z"/>
        <path class="cls-2" d="m76.31,126.77h6.89v1.08h-2.86v7.51h-1.18v-7.51h-2.86v-1.08Z"/>
        <path class="cls-2" d="m90.09,135.36h-1.18v-8.59h1.18v8.59Z"/>
        <path class="cls-2" d="m98.3,134.98c-.66-.38-1.17-.9-1.54-1.58-.37-.67-.55-1.45-.55-2.31s.18-1.67.55-2.35c.37-.68.89-1.21,1.56-1.59.67-.38,1.44-.56,2.31-.56s1.59.19,2.25.56c.66.38,1.17.9,1.54,1.58.37.67.55,1.45.55,2.31s-.18,1.67-.55,2.35c-.37.68-.89,1.21-1.56,1.59s-1.44.56-2.31.56-1.59-.19-2.25-.56Zm3.91-.98c.48-.28.85-.68,1.12-1.18.27-.51.4-1.08.4-1.73s-.13-1.26-.39-1.77c-.26-.51-.63-.91-1.11-1.19-.48-.28-1.02-.42-1.64-.42s-1.16.14-1.64.42c-.48.28-.86.67-1.12,1.18s-.4,1.08-.4,1.74.13,1.25.4,1.76.63.91,1.11,1.2c.47.29,1.02.43,1.63.43s1.16-.14,1.64-.42Z"/>
        <path class="cls-2" d="m111.08,135.36v-8.59h1.15l4.21,5.77c.34.46.54.75.63.88h.02c-.02-.27-.02-.51-.02-.72v-5.92h1.19v8.59h-1.15l-4.22-5.76c-.34-.46-.54-.75-.63-.88h-.02c.02.27.02.51.02.72v5.92h-1.18Z"/>
      </g>
      <g>
        <path class="cls-2" d="m115.76,94.45h-1.3l-.86-1.89h-4.73l-.85,1.89h-1.29l3.85-8.59h1.32l3.85,8.59Zm-4.53-7.4c-.17.42-.4.95-.69,1.61l-1.2,2.82h3.78l-1.2-2.85-.15-.34c-.29-.65-.46-1.07-.52-1.24h-.02Z"/>
        <path class="cls-2" d="m119.58,94.45v-8.59h1.15l4.21,5.77c.34.46.54.75.63.88h.02c-.02-.27-.02-.51-.02-.72v-5.92h1.19v8.59h-1.15l-4.22-5.76c-.34-.46-.54-.75-.63-.88h-.02c.02.27.02.51.02.72v5.92h-1.18Z"/>
        <path class="cls-2" d="m133.12,94.07c-.66-.38-1.17-.9-1.54-1.58-.37-.67-.55-1.45-.55-2.31s.18-1.67.55-2.35c.37-.68.89-1.21,1.56-1.59.67-.38,1.44-.56,2.31-.56s1.59.19,2.25.56c.66.38,1.17.9,1.54,1.58s.55,1.45.55,2.31-.18,1.67-.55,2.35-.89,1.21-1.56,1.59c-.67.38-1.44.56-2.31.56s-1.59-.19-2.25-.56Zm3.91-.98c.48-.28.85-.68,1.12-1.18.27-.51.4-1.08.4-1.73s-.13-1.26-.39-1.77-.63-.91-1.11-1.19c-.48-.28-1.02-.42-1.64-.42s-1.16.14-1.64.42c-.48.28-.86.67-1.12,1.18-.27.5-.4,1.08-.4,1.74s.13,1.25.4,1.76c.27.51.63.91,1.11,1.2.47.29,1.02.43,1.63.43s1.16-.14,1.64-.42Z"/>
        <path class="cls-2" d="m144.92,94.3c-.57-.21-1.05-.49-1.45-.83l.59-.9c.38.28.79.5,1.26.67s.94.25,1.44.25c.6,0,1.09-.13,1.48-.41.39-.27.58-.63.58-1.09,0-.4-.16-.72-.49-.96-.32-.24-.87-.42-1.65-.55-1.02-.16-1.77-.43-2.25-.8-.48-.37-.72-.88-.72-1.54,0-.48.13-.91.4-1.29.27-.38.64-.67,1.1-.87.47-.2.99-.31,1.57-.31s1.07.07,1.53.21c.47.14.91.38,1.32.71l-.65.86c-.29-.23-.63-.4-1.01-.52s-.77-.17-1.16-.17c-.56,0-1.02.12-1.38.36-.36.24-.55.56-.55.96,0,.36.16.64.48.84.32.2.86.37,1.63.51,1.07.2,1.84.5,2.3.9.46.4.69.95.69,1.64,0,.54-.14,1.01-.41,1.4-.27.4-.66.7-1.15.91-.5.21-1.06.32-1.7.32s-1.25-.1-1.82-.31Z"/>
      </g>
      <path class="cls-2" d="m123.8,84.13c-.25,0-.45-.04-.62-.13s-.33-.17-.47-.26c-.14-.09-.3-.13-.48-.13s-.31.04-.4.13-.14.18-.17.28c-.02.1-.04.15-.04.17h-.64s.02-.14.06-.28c.04-.13.1-.28.19-.43.09-.15.21-.28.37-.39.16-.11.36-.17.6-.17s.44.04.59.13c.16.09.32.17.47.26.15.09.32.13.52.13.21,0,.37-.05.46-.14s.16-.19.18-.29c.03-.1.04-.15.04-.17h.64s-.02.14-.05.27c-.04.13-.1.27-.2.43-.1.15-.23.29-.4.4-.17.11-.38.17-.64.17Z"/>
      <path class="cls-1" d="m17.32,5.41c-.26,3.82-1.62,6.49-4.16,8.16-4,2.64-10.19,2.37-13.16,1.88v8.25c.1.01.19.02.3.04,2.27.26,5.75.42,9.46-.27,2.89-.54,5.41-1.49,7.55-2.82v76.59h8.18V5.7l-8.17-.28Z"/>
      <path class="cls-3" d="m97.25,42.81l13.64,16.04,14.52-21.21c.99,3.52,1.48,7.16,1.48,10.91,0,8.93-2.85,17.36-8.23,24.42l7.06,4.21c6.12-8.35,9.35-18.21,9.35-28.63,0-7.52-1.67-14.73-4.98-21.43l-3.09-6.27-16.81,24.56-17.1-20.12h-4.01v49.33h8.18v-31.8Z"/>
      <path class="cls-4" d="m69.32,74.62V25.28h8.18v49.34h-8.18Zm11.78-26.07c0,1.18.95,2.13,2.13,2.13s2.13-.95,2.13-2.13-.95-2.13-2.13-2.13-2.13.95-2.13,2.13Zm62.59-2.13c-1.18,0-2.13.95-2.13,2.13s.95,2.13,2.13,2.13,2.13-.95,2.13-2.13-.95-2.13-2.13-2.13Zm-88.24,2.13c0,1.18.95,2.13,2.13,2.13s2.13-.95,2.13-2.13-.95-2.13-2.13-2.13-2.13.95-2.13,2.13Zm41.51,39.01c-3.36.89-6.86,1.36-10.44,1.36-22.26,0-40.37-18.11-40.37-40.37S64.26,8.18,86.52,8.18c9.66,0,19.01,3.47,26.32,9.76.19.17.39.34.58.51l.12.1,4.65-6.8s-.01-.01-.02-.02C109.38,4.17,98.14,0,86.52,0c-26.77,0-48.55,21.78-48.55,48.55s21.78,48.55,48.55,48.55c4.54,0,8.98-.62,13.23-1.82l-2.79-7.71Zm33.14-60.45l-3.09-6.27-16.81,24.56-17.1-20.12h-4.01v49.33h8.18v-31.8l13.64,16.04,14.52-21.21c.99,3.52,1.48,7.16,1.48,10.91,0,9.13-2.97,17.74-8.59,24.9l6.43,5.05c6.76-8.62,10.34-18.97,10.34-29.95,0-7.52-1.67-14.73-4.98-21.43Z"/>
    </g>
  </g>
</svg>