<?xml version="1.0" encoding="UTF-8"?><svg id="Capa_2" xmlns="http://www.w3.org/2000/svg" viewBox="0 0 171.64 47.68"><defs><style>.cls-1{fill:#ea9548;}.cls-1,.cls-2{stroke-width:0px;}.cls-2{fill:#fff;}</style></defs><g id="Layer_1"><path class="cls-2" d="m43.43,5.35c0-1.66,1.36-3.02,3.02-3.02s3.02,1.36,3.02,3.02-1.36,3.02-3.02,3.02-3.02-1.36-3.02-3.02Zm.34,7.39c0-1.73,1.36-2.68,2.68-2.68s2.68.94,2.68,2.68v14.89c0,1.73-1.32,2.68-2.68,2.68-1.28,0-2.68-.9-2.68-2.68v-14.89Z"/><path class="cls-2" d="m80.27,17.84v9.69c0,1.85-1.4,2.79-2.71,2.79s-2.71-.94-2.71-2.79v-8.82c0-3.28-1.55-4.19-3.05-4.19-1.92,0-3.28,1.43-3.28,4.3v8.71c0,1.85-1.4,2.79-2.71,2.79s-2.71-.94-2.71-2.79v-8.82c0-3.24-1.55-4.19-3.05-4.19-1.92,0-3.28,1.4-3.32,4.3v8.78c0,1.77-1.36,2.68-2.68,2.68s-2.71-.9-2.71-2.68v-14.82c0-1.77,1.39-2.68,2.75-2.68,1.28,0,2.6.83,2.64,2.45,1.02-1.66,2.68-2.64,4.94-2.64s4.11.94,5.28,2.75c1.24-1.85,3.32-2.75,5.88-2.75,3.85,0,7.47,2.41,7.47,7.92Z"/><path class="cls-2" d="m103.95,20.25c0,5.84-3.73,10.22-9.8,10.22-2.38,0-5.01-1.02-6.56-3.28v9.28c0,1.74-1.32,2.68-2.68,2.68s-2.68-.94-2.68-2.68V12.74c0-1.73,1.36-2.68,2.68-2.68s2.68.94,2.68,2.68v1.02c.91-2.26,3.47-3.81,6.83-3.81,5.99,0,9.54,4.71,9.54,10.29Zm-5.43-.04c0-3.17-2.26-5.43-5.47-5.43s-5.43,2.3-5.43,5.43,2.26,5.43,5.43,5.43,5.47-2.26,5.47-5.43Z"/><path class="cls-2" d="m124.43,12.78v14.82c0,1.77-1.4,2.68-2.72,2.68s-2.71-.9-2.71-2.68v-.3c-1.24,2-3.24,3.17-6.07,3.17-4.11,0-7.96-2.6-7.96-8.63v-8.94c0-1.89,1.4-2.83,2.71-2.83s2.68.94,2.68,2.83v8.11c0,3.81,2.15,4.86,4.22,4.86,2.56,0,4.41-1.62,4.41-4.98v-8.11c0-1.77,1.36-2.68,2.71-2.68s2.72.9,2.72,2.68Z"/><path class="cls-2" d="m126.61,4.19c0-1.77,1.36-2.68,2.68-2.68s2.68.9,2.68,2.68v23.45c0,1.77-1.36,2.68-2.68,2.68s-2.68-.9-2.68-2.68V4.19Z"/><path class="cls-2" d="m134.23,27.53c-.53-.64-.75-1.28-.75-1.89,0-1.36,1.21-2.41,2.53-2.41.75,0,1.51.34,2.15,1.13,1.02,1.28,2.04,1.89,3.73,1.89s3.02-.64,3.02-1.77c0-3.24-11.42-1.28-11.42-8.37,0-3.92,3.58-6.18,7.92-6.18,2.98,0,5.92,1.13,7.2,2.53.6.64.83,1.32.83,1.92,0,1.17-.94,2.15-2.19,2.15-.72,0-1.51-.3-2.26-1.02-.98-.9-2.19-1.55-3.66-1.55s-2.64.6-2.64,1.7c0,3.24,11.61,1.06,11.61,8.45,0,4.11-3.62,6.33-8.45,6.33-3.36,0-6.07-1.06-7.62-2.9Z"/><path class="cls-2" d="m150.33,20.17c0-5.92,4.45-10.26,10.63-10.26s10.67,4.34,10.67,10.26-4.49,10.26-10.67,10.26-10.63-4.3-10.63-10.26Zm16.1,0c0-3.13-2.3-5.43-5.47-5.43s-5.43,2.3-5.43,5.43,2.3,5.43,5.43,5.43,5.47-2.3,5.47-5.43Z"/><path class="cls-1" d="m21.71,25.62c-4.16,2.58-9.5,1.95-12.97-1.52-3.42-3.42-4.08-8.7-1.59-12.85.8-1.34.37-3.07-.97-3.88-1.34-.8-3.07-.37-3.88.97-3.83,6.37-2.82,14.49,2.44,19.75,3.13,3.13,7.26,4.76,11.43,4.76,2.92,0,5.87-.8,8.51-2.43,1.33-.82,1.74-2.56.92-3.89-.82-1.33-2.56-1.74-3.89-.92Z"/><path class="cls-1" d="m30.77,7.98s.02-.01.03-.02c1.63-1.63,1.63-4.26,0-5.89-1.63-1.63-4.26-1.63-5.89,0-.02.02-.04.05-.06.07,1.22.7,2.37,1.56,3.4,2.59.99.99,1.82,2.09,2.51,3.26Z"/><path class="cls-1" d="m30.81,8.05s-.03-.04-.04-.07c-.85.83-1.96,1.22-3.07,1.18-1.01-.04-2.02-.43-2.79-1.2-.77-.77-1.17-1.78-1.2-2.79-.04-1.09.34-2.18,1.15-3.03,0,0,0,0,0,0C20.32-.45,14.71-.75,9.86,1.56c-1.41.67-2.01,2.36-1.33,3.77.67,1.41,2.36,2.01,3.77,1.33,3.11-1.48,6.69-1.31,9.62.3l-9.31,9.31c-1.1,1.1-1.1,2.89,0,4,.55.55,1.27.83,2,.83.72,0,1.45-.28,2-.83l9.35-9.35c1.64,2.84,1.89,6.31.53,9.44-.62,1.43.03,3.1,1.47,3.72.37.16.75.23,1.12.23,1.09,0,2.13-.64,2.59-1.7,2.1-4.82,1.71-10.19-.85-14.56Z"/><path class="cls-2" d="m92.61,45.08c-1.52,0-3.05-1.02-3.05-3.05s1.53-3.04,3.05-3.04c.63,0,1.27.18,1.78.53.18.13.26.3.26.46,0,.22-.15.4-.34.4-.07,0-.14-.02-.21-.07-.41-.27-.9-.41-1.37-.41-1.12,0-2.18.74-2.18,2.13s1.03,2.15,2.17,2.15c.46,0,.92-.13,1.36-.4.08-.05.15-.07.21-.07.21,0,.34.21.34.42,0,.16-.07.32-.24.43-.53.34-1.15.51-1.78.51Z"/><path class="cls-2" d="m101.71,39.57v4.98c0,.32-.25.49-.5.49s-.51-.17-.51-.49v-.95c-.34.87-1.19,1.5-2.39,1.5-1.79,0-2.94-1.36-2.94-3.07s1.19-3.05,2.99-3.05c1.02,0,1.89.52,2.34,1.39v-.8c0-.33.26-.49.51-.49s.5.16.5.49Zm-1.02,2.47c0-1.21-.9-2.16-2.16-2.16s-2.17.9-2.17,2.16.91,2.17,2.17,2.17,2.16-.95,2.16-2.17Z"/><path class="cls-2" d="m109.39,42.06c0,1.73-1.19,3.04-2.99,3.04-1.02,0-1.89-.51-2.35-1.39v3.48c0,.33-.24.5-.49.5s-.5-.17-.5-.5v-7.64c0-.32.25-.49.5-.49s.49.16.49.49v.92c.37-.89,1.24-1.48,2.4-1.48,1.78,0,2.95,1.35,2.95,3.07Zm-1-.01c0-1.26-.91-2.17-2.18-2.17s-2.15.95-2.15,2.17.89,2.16,2.15,2.16,2.18-.91,2.18-2.16Z"/><path class="cls-2" d="m110.29,37.59c0-.35.29-.64.63-.64s.64.29.64.64-.29.63-.64.63-.63-.29-.63-.63Zm.13,1.95c0-.33.26-.49.5-.49.25,0,.5.16.5.49v4.99c0,.32-.25.49-.5.49s-.5-.17-.5-.49v-4.99Z"/><path class="cls-2" d="m115.1,39.1c.22,0,.4.18.4.4s-.19.39-.4.39h-.9v4.65c0,.32-.25.49-.49.49-.25,0-.5-.17-.5-.49v-4.65h-.52c-.22,0-.4-.18-.4-.39,0-.22.18-.4.4-.4h.52v-1.24c0-.33.26-.49.5-.49s.49.16.49.49v1.24h.9Z"/><path class="cls-2" d="m122.09,39.57v4.98c0,.32-.25.49-.5.49s-.51-.17-.51-.49v-.95c-.34.87-1.19,1.5-2.39,1.5-1.79,0-2.94-1.36-2.94-3.07s1.19-3.05,2.99-3.05c1.02,0,1.89.52,2.34,1.39v-.8c0-.33.26-.49.51-.49s.5.16.5.49Zm-1.02,2.47c0-1.21-.9-2.16-2.16-2.16s-2.17.9-2.17,2.16.91,2.17,2.17,2.17,2.16-.95,2.16-2.17Z"/><path class="cls-2" d="m123.43,36.86c0-.32.25-.49.5-.49s.49.17.49.49v7.67c0,.32-.25.49-.49.49s-.5-.17-.5-.49v-7.67Z"/><path class="cls-2" d="m133.68,41.52v2.99c0,.34-.26.51-.51.51s-.5-.17-.5-.51v-2.85c0-1.37-.8-1.81-1.64-1.81-1.07,0-1.76.71-1.78,1.92v2.77c0,.32-.25.49-.49.49s-.5-.17-.5-.49v-7.67c0-.32.25-.49.5-.49s.49.17.49.49v3.33c.38-.78,1.07-1.22,2.07-1.22,1.26,0,2.37.74,2.37,2.54Z"/><path class="cls-2" d="m140.26,39.56v4.96c0,.33-.25.5-.5.5s-.5-.18-.5-.5v-.63c-.38.76-1.07,1.2-2.05,1.2-1.25,0-2.37-.73-2.37-2.53v-2.99c0-.34.25-.51.5-.51s.5.17.5.51v2.85c0,1.37.81,1.81,1.66,1.81,1.04,0,1.75-.66,1.77-1.92v-2.76c0-.34.26-.5.5-.5.25,0,.5.16.5.5Z"/><path class="cls-2" d="m150.1,41.35v3.16c0,.34-.26.51-.51.51s-.5-.17-.5-.51v-3.01c0-1.26-.63-1.66-1.3-1.66-.89,0-1.43.67-1.43,1.75v2.92c0,.33-.25.51-.5.51s-.51-.18-.51-.51v-3.01c0-1.26-.63-1.66-1.3-1.66-.88,0-1.42.65-1.44,1.75v2.93c0,.32-.25.5-.5.5s-.5-.18-.5-.5v-4.96c0-.33.25-.5.51-.5s.49.16.49.48v.5c.32-.67.91-1.06,1.72-1.06.75,0,1.44.35,1.74,1.2.32-.76.99-1.2,1.91-1.2,1.13,0,2.13.7,2.13,2.37Z"/><path class="cls-2" d="m157.37,39.57v4.98c0,.32-.25.49-.5.49s-.51-.17-.51-.49v-.95c-.34.87-1.19,1.5-2.39,1.5-1.79,0-2.94-1.36-2.94-3.07s1.19-3.05,2.99-3.05c1.02,0,1.89.52,2.34,1.39v-.8c0-.33.26-.49.51-.49s.5.16.5.49Zm-1.02,2.47c0-1.21-.9-2.16-2.16-2.16s-2.17.9-2.17,2.16.91,2.17,2.17,2.17,2.16-.95,2.16-2.17Z"/><path class="cls-2" d="m164.14,41.52v2.99c0,.34-.25.51-.5.51s-.5-.18-.5-.51v-2.85c0-1.37-.8-1.81-1.64-1.81-1.08,0-1.76.71-1.78,1.92v2.76c0,.32-.25.5-.5.5s-.5-.18-.5-.5v-4.96c0-.33.25-.5.5-.5s.5.16.5.5v.64c.38-.78,1.07-1.22,2.07-1.22,1.24,0,2.36.74,2.36,2.54Z"/><path class="cls-2" d="m165.08,42.03c0-1.75,1.35-3.06,3.13-3.06s3.13,1.31,3.13,3.06-1.33,3.06-3.13,3.06-3.13-1.31-3.13-3.06Zm5.28-.01c0-1.21-.92-2.15-2.16-2.15s-2.16.94-2.16,2.15.95,2.17,2.16,2.17,2.16-.94,2.16-2.17Z"/></g></svg>