<?xml version="1.0" encoding="UTF-8"?><svg id="Capa_2" xmlns="http://www.w3.org/2000/svg" xmlns:xlink="http://www.w3.org/1999/xlink" viewBox="0 0 231.39 94.09"><defs><style>.cls-1{fill:url(#Degradado_sin_nombre_8);}.cls-1,.cls-2,.cls-3,.cls-4,.cls-5{stroke-width:0px;}.cls-2{fill:url(#Degradado_sin_nombre_3);}.cls-3{fill:#fff;}.cls-4{fill:url(#Degradado_sin_nombre_7);}.cls-5{fill:url(#Degradado_sin_nombre_9);}</style><linearGradient id="Degradado_sin_nombre_3" x1="19.2" y1="-15.8" x2="6.86" y2="75.24" gradientUnits="userSpaceOnUse"><stop offset="0" stop-color="#fff"/><stop offset=".34" stop-color="#fcfcfc"/><stop offset=".48" stop-color="#f5f5f5"/><stop offset=".59" stop-color="#e9e9e9"/><stop offset=".68" stop-color="#d7d7d7"/><stop offset=".75" stop-color="#c1c1c1"/><stop offset=".82" stop-color="#a4a4a4"/><stop offset=".88" stop-color="#838383"/><stop offset=".94" stop-color="#5c5c5c"/><stop offset=".99" stop-color="#313131"/><stop offset="1" stop-color="#262626"/></linearGradient><linearGradient id="Degradado_sin_nombre_7" x1="81.08" y1="-7.41" x2="66.41" y2="100.83" gradientUnits="userSpaceOnUse"><stop offset="0" stop-color="#fff"/><stop offset=".17" stop-color="#fbfbfb"/><stop offset=".31" stop-color="#f1f1f1"/><stop offset=".44" stop-color="#e0e0e0"/><stop offset=".56" stop-color="#c7c7c7"/><stop offset=".68" stop-color="#a8a8a8"/><stop offset=".79" stop-color="#828282"/><stop offset=".9" stop-color="#555"/><stop offset="1" stop-color="#262626"/></linearGradient><linearGradient id="Degradado_sin_nombre_8" x1="154.01" y1="2.48" x2="137.56" y2="123.82" gradientUnits="userSpaceOnUse"><stop offset="0" stop-color="#fff"/><stop offset=".16" stop-color="#fbfbfb"/><stop offset=".3" stop-color="#f0f0f0"/><stop offset=".43" stop-color="#dedede"/><stop offset=".55" stop-color="#c5c5c5"/><stop offset=".68" stop-color="#a4a4a4"/><stop offset=".8" stop-color="#7c7c7c"/><stop offset=".91" stop-color="#4e4e4e"/><stop offset="1" stop-color="#262626"/></linearGradient><linearGradient id="Degradado_sin_nombre_9" x1="209.93" y1="10.06" x2="192.61" y2="137.85" gradientUnits="userSpaceOnUse"><stop offset="0" stop-color="#fff"/><stop offset=".18" stop-color="#fbfbfb"/><stop offset=".32" stop-color="#f2f2f2"/><stop offset=".45" stop-color="#e1e1e1"/><stop offset=".57" stop-color="#cacaca"/><stop offset=".68" stop-color="#acacac"/><stop offset=".79" stop-color="#878787"/><stop offset=".89" stop-color="#5b5b5b"/><stop offset=".99" stop-color="#292929"/><stop offset="1" stop-color="#262626"/></linearGradient></defs><g id="Capa_1-2"><path class="cls-3" d="m3.16,88.89c0-.98.21-1.85.62-2.61.41-.76,1-1.35,1.75-1.77.75-.42,1.62-.63,2.59-.63,1.25,0,2.34.36,3.27,1.07l-.65.87c-.79-.6-1.66-.9-2.61-.9-1.13,0-2.04.36-2.73,1.09-.7.73-1.04,1.68-1.04,2.87,0,1.25.34,2.25,1.03,3.01.69.76,1.6,1.14,2.75,1.14,1.08,0,1.99-.36,2.73-1.07l.74.79c-.93.88-2.1,1.33-3.52,1.33-.97,0-1.83-.22-2.58-.65s-1.33-1.05-1.73-1.84c-.41-.79-.61-1.69-.61-2.71Z"/><path class="cls-3" d="m16.07,88.92c0-.99.22-1.87.65-2.64.44-.77,1.03-1.36,1.77-1.77.75-.41,1.58-.62,2.5-.62.68,0,1.33.12,1.93.36.61.24,1.13.58,1.57,1.01.44.43.79.96,1.05,1.6.26.63.39,1.32.39,2.07s-.13,1.49-.38,2.14c-.25.65-.6,1.2-1.04,1.64s-.96.79-1.57,1.03c-.6.24-1.25.36-1.95.36s-1.35-.12-1.95-.36c-.6-.24-1.12-.59-1.56-1.03s-.78-.99-1.04-1.64c-.25-.65-.38-1.36-.38-2.14Zm1.22,0c0,.63.1,1.21.29,1.73s.45.95.78,1.3c.33.35.72.62,1.17.81.45.19.94.29,1.46.29s1-.09,1.46-.29.84-.46,1.18-.81c.33-.35.59-.78.79-1.31.19-.52.29-1.1.29-1.73,0-.6-.1-1.14-.29-1.65-.19-.5-.46-.92-.79-1.26-.33-.34-.73-.6-1.18-.79-.45-.19-.94-.29-1.45-.29s-1,.1-1.45.29c-.45.19-.85.46-1.18.79-.33.34-.59.76-.78,1.26-.19.5-.29,1.05-.29,1.65Z"/><path class="cls-3" d="m31.11,93.92v-9.87h4.12c.49,0,.92.06,1.31.17.39.11.71.26.97.45.26.19.47.41.64.66.17.25.29.52.36.8.07.28.11.57.11.87,0,.63-.18,1.19-.53,1.7s-.87.86-1.54,1.07l2.08,4.15h-1.31l-1.88-3.99h-3.13v3.99h-1.2Zm1.2-4.93h2.9c.38,0,.72-.06,1.01-.17.29-.11.53-.26.7-.45.17-.19.3-.4.38-.63.08-.23.13-.47.13-.73,0-.55-.18-1.02-.54-1.39s-.92-.55-1.66-.55h-2.92v3.92Z"/><path class="cls-3" d="m43.97,93.92v-9.87h3.92c.49,0,.93.06,1.32.17.39.11.72.26.97.45.25.19.47.41.64.66.17.25.29.52.37.8.07.28.11.57.11.87s-.04.58-.11.85c-.07.27-.2.54-.37.8-.17.26-.39.49-.65.68-.26.19-.58.35-.98.46s-.83.17-1.32.17h-2.7v3.96h-1.2Zm1.2-4.93h2.69c.39,0,.73-.06,1.03-.17.3-.11.53-.27.7-.46s.3-.4.38-.63c.08-.23.13-.47.13-.72,0-.55-.18-1.01-.55-1.38-.37-.37-.92-.56-1.67-.56h-2.72v3.92Z"/><path class="cls-3" d="m56.03,88.92c0-.99.22-1.87.65-2.64.44-.77,1.03-1.36,1.77-1.77.75-.41,1.58-.62,2.5-.62.68,0,1.33.12,1.93.36.61.24,1.13.58,1.57,1.01.44.43.79.96,1.05,1.6.26.63.39,1.32.39,2.07s-.13,1.49-.38,2.14c-.25.65-.6,1.2-1.04,1.64s-.96.79-1.57,1.03c-.6.24-1.25.36-1.95.36s-1.35-.12-1.95-.36c-.6-.24-1.12-.59-1.56-1.03s-.78-.99-1.04-1.64c-.25-.65-.38-1.36-.38-2.14Zm1.22,0c0,.63.1,1.21.29,1.73s.45.95.78,1.3c.33.35.72.62,1.17.81.45.19.94.29,1.46.29s1-.09,1.46-.29.84-.46,1.18-.81c.33-.35.59-.78.79-1.31.19-.52.29-1.1.29-1.73,0-.6-.1-1.14-.29-1.65-.19-.5-.46-.92-.79-1.26-.33-.34-.73-.6-1.18-.79-.45-.19-.94-.29-1.45-.29s-1,.1-1.45.29c-.45.19-.85.46-1.18.79-.33.34-.59.76-.78,1.26-.19.5-.29,1.05-.29,1.65Z"/><path class="cls-3" d="m71.07,93.92v-9.87h4.12c.49,0,.92.06,1.31.17.39.11.71.26.97.45.26.19.47.41.64.66.17.25.29.52.36.8.07.28.11.57.11.87,0,.63-.18,1.19-.53,1.7s-.87.86-1.54,1.07l2.08,4.15h-1.31l-1.88-3.99h-3.13v3.99h-1.2Zm1.2-4.93h2.9c.38,0,.72-.06,1.01-.17.29-.11.53-.26.7-.45.17-.19.3-.4.38-.63.08-.23.13-.47.13-.73,0-.55-.18-1.02-.54-1.39s-.92-.55-1.66-.55h-2.92v3.92Z"/><path class="cls-3" d="m83.06,93.92l3.74-9.87h1.44l3.72,9.87h-1.3l-.89-2.42h-4.52l-.87,2.42h-1.31Zm2.54-3.4h3.82l-1.9-5.24h-.03l-1.89,5.24Z"/><path class="cls-3" d="m95.01,85.13v-1.07h8.35v1.07h-3.58v8.79h-1.2v-8.79h-3.57Z"/><path class="cls-3" d="m108.18,93.92v-9.87h6.76v1.07h-5.57v3.25h5.02v1.02h-5.02v3.45h5.65v1.07h-6.85Z"/><path class="cls-3" d="m133.44,93.07l.6-.96c.92.6,1.93.9,3.04.9.75,0,1.33-.15,1.72-.46.39-.31.59-.71.59-1.22,0-.28-.07-.53-.2-.74-.13-.21-.31-.38-.53-.5s-.48-.23-.77-.31c-.29-.08-.59-.17-.91-.26-.32-.09-.63-.18-.95-.27s-.62-.21-.91-.34-.55-.3-.77-.5c-.22-.19-.4-.44-.53-.75-.13-.31-.2-.67-.2-1.07,0-.78.3-1.42.92-1.94s1.43-.77,2.47-.77c1.14,0,2.23.25,3.26.75l-.46.99c-.9-.44-1.82-.67-2.75-.67-.67,0-1.2.15-1.59.46s-.58.69-.58,1.17c0,.28.07.53.2.74.13.21.31.38.53.5.22.13.48.23.77.31.29.08.6.17.91.25.32.09.63.18.95.26.32.09.62.2.91.34.29.14.54.3.76.5.22.19.4.45.53.76.13.31.2.68.2,1.09,0,.81-.3,1.47-.91,1.98-.61.51-1.48.77-2.63.77-.69,0-1.35-.09-2-.29-.64-.19-1.19-.43-1.64-.73Z"/><path class="cls-3" d="m145.81,93.92v-9.87h6.76v1.07h-5.57v3.25h5.02v1.02h-5.02v3.45h5.65v1.07h-6.85Z"/><path class="cls-3" d="m158,93.92v-9.87h4.12c.49,0,.92.06,1.31.17.39.11.71.26.97.45.26.19.47.41.64.66.17.25.29.52.36.8.07.28.11.57.11.87,0,.63-.18,1.19-.53,1.7s-.87.86-1.54,1.07l2.08,4.15h-1.31l-1.88-3.99h-3.13v3.99h-1.2Zm1.2-4.93h2.9c.38,0,.72-.06,1.01-.17.29-.11.53-.26.7-.45.17-.19.3-.4.38-.63.08-.23.13-.47.13-.73,0-.55-.18-1.02-.54-1.39s-.92-.55-1.66-.55h-2.92v3.92Z"/><path class="cls-3" d="m170.04,84.05h1.33l3.03,8.53h.03l3.06-8.53h1.32l-3.69,9.87h-1.41l-3.67-9.87Z"/><path class="cls-3" d="m183.64,93.92v-9.87h1.2v9.87h-1.2Z"/><path class="cls-3" d="m190.02,88.89c0-.98.21-1.85.62-2.61.41-.76,1-1.35,1.75-1.77.75-.42,1.62-.63,2.59-.63,1.25,0,2.34.36,3.27,1.07l-.65.87c-.79-.6-1.66-.9-2.61-.9-1.13,0-2.04.36-2.73,1.09-.7.73-1.04,1.68-1.04,2.87,0,1.25.34,2.25,1.03,3.01.69.76,1.6,1.14,2.75,1.14,1.08,0,1.99-.36,2.73-1.07l.74.79c-.93.88-2.1,1.33-3.52,1.33-.97,0-1.83-.22-2.58-.65s-1.33-1.05-1.73-1.84c-.41-.79-.61-1.69-.61-2.71Z"/><path class="cls-3" d="m203.68,93.92v-9.87h6.76v1.07h-5.57v3.25h5.02v1.02h-5.02v3.45h5.65v1.07h-6.85Z"/><path class="cls-3" d="m215.35,93.07l.6-.96c.92.6,1.93.9,3.04.9.75,0,1.33-.15,1.72-.46.39-.31.59-.71.59-1.22,0-.28-.07-.53-.2-.74-.13-.21-.31-.38-.53-.5s-.48-.23-.77-.31c-.29-.08-.59-.17-.91-.26-.32-.09-.63-.18-.95-.27s-.62-.21-.91-.34-.55-.3-.77-.5c-.22-.19-.4-.44-.53-.75-.13-.31-.2-.67-.2-1.07,0-.78.3-1.42.92-1.94s1.43-.77,2.47-.77c1.14,0,2.23.25,3.26.75l-.46.99c-.9-.44-1.82-.67-2.75-.67-.67,0-1.2.15-1.59.46s-.58.69-.58,1.17c0,.28.07.53.2.74.13.21.31.38.53.5.22.13.48.23.77.31.29.08.6.17.91.25.32.09.63.18.95.26.32.09.62.2.91.34.29.14.54.3.76.5.22.19.4.45.53.76.13.31.2.68.2,1.09,0,.81-.3,1.47-.91,1.98-.61.51-1.48.77-2.63.77-.69,0-1.35-.09-2-.29-.64-.19-1.19-.43-1.64-.73Z"/><path class="cls-2" d="m8.06,53.12V11.04C8.06,6.66,4.21,3.77,0,3.77V1.4h25.42v2.37c-4.21,0-8.06,2.89-8.06,7.27v42.07c0,4.38,3.86,7.27,8.06,7.27v2.37H0v-2.37c4.21,0,8.06-2.89,8.06-7.27Z"/><path class="cls-4" d="m42.25,53.03l2.02-42.86c.18-4.47-3.07-6.4-7.98-6.4V1.4h17.88l20.51,49.26L94.22,1.4h18.41v2.37c-5.61,0-8.41,1.49-8.15,6.66l2.19,42.86c.26,4.56,3.33,7.1,8.5,7.1v2.37h-28.22v-2.37c8.15,0,10.61-3.24,10.34-7.01l-2.1-43.3-20.51,51.71-5,.96L48.21,11.57l-1.93,42.07c-.18,3.68,2.37,6.75,10.26,6.75v2.37h-22.88v-2.37c5.26,0,8.33-2.63,8.59-7.36Z"/><path class="cls-1" d="m122.36,31.9c0-18.14,12.8-31.9,30.24-31.9,8.76,0,14.37,2.19,18.49,3.86l.88,18.67h-2.37c-2.8-14.81-10.08-18.67-18.84-18.67-10.52,0-18.32,9.47-18.32,22.35,0,15.86,7.8,32.78,21.82,32.78,7.27,0,15.69-4.56,18.67-10.61l2.72,1.14c-4.47,9.73-13.5,14.64-23.58,14.64-16.92,0-29.71-13.85-29.71-32.25Z"/><path class="cls-5" d="m183.89,61.18l-1.84-16.39,2.28-.35c1.75,12.01,14.29,15.51,21.74,15.51,8.68,0,16.57-4.29,16.57-11.66,0-16.3-39.97-8.5-39.97-29.89,0-10.34,9.64-18.41,23.75-18.41,9.9,0,16.13,3.77,20.69,3.77l1.23,14.11-2.28.35c-1.14-6.57-10.52-14.2-21.12-14.2-8.68,0-13.5,4.65-13.5,10.17,0,15.08,39.97,6.66,39.97,30.15,0,12.18-10.61,19.81-26.82,19.81-10.69,0-15.08-2.98-20.69-2.98Z"/></g></svg>