<?xml version="1.0" encoding="UTF-8"?>
<svg id="Capa_2" data-name="Capa 2" xmlns="http://www.w3.org/2000/svg" xmlns:xlink="http://www.w3.org/1999/xlink" viewBox="0 0 543.39 100.82">
  <defs>
    <style>
      .cls-1 {
        fill: #c49d5d;
      }

      .cls-1, .cls-2 {
        stroke-width: 0px;
      }

      .cls-2 {
        fill: url(#Degradado_sin_nombre);
      }
    </style>
    <linearGradient id="Degradado_sin_nombre" data-name="Degradado sin nombre" x1="62.22" y1="449.08" x2="62.22" y2="550.36" gradientTransform="translate(0 550.28) scale(1 -1)" gradientUnits="userSpaceOnUse">
      <stop offset="0" stop-color="#855d25"/>
      <stop offset="1" stop-color="#f0ce92"/>
    </linearGradient>
  </defs>
  <g id="Capa_2-2" data-name="Capa 2">
    <g>
      <g>
        <path class="cls-1" d="m140.16,46.78c0-5.3,3.74-9.05,9.05-9.05,2.48,0,4.71.92,6.41,2.7l-1.66,1.49c-1.21-1.27-2.82-1.92-4.67-1.92-3.95,0-6.69,2.76-6.69,6.81s2.74,6.79,6.69,6.79c1.82,0,3.58-.7,4.85-1.94l1.58,1.62c-1.72,1.7-3.93,2.58-6.53,2.58-5.32,0-9.05-3.75-9.05-9.05l.02-.02Z"/>
        <path class="cls-1" d="m162.24,46.78c0-5.38,3.62-9.09,8.88-9.09s8.88,3.72,8.88,9.09-3.62,9.09-8.88,9.09-8.88-3.72-8.88-9.09Zm8.88,6.79c3.81,0,6.45-2.76,6.45-6.79s-2.64-6.81-6.45-6.81-6.45,2.76-6.45,6.81,2.64,6.79,6.45,6.79Z"/>
        <path class="cls-1" d="m188.41,38.07h8.02c3.66,0,6.08,2.25,6.08,5.65,0,2.99-1.86,5.08-4.77,5.55l5.5,6.22h-3.09l-5.36-6.12h-3.95v6.12h-2.41v-17.43h-.02Zm8.06,9.04c2.25,0,3.62-1.29,3.62-3.38s-1.37-3.38-3.62-3.38h-5.65v6.77s5.65,0,5.65,0Z"/>
        <path class="cls-1" d="m211.23,38.07h7.94c3.75,0,6.18,2.41,6.18,5.98s-2.43,6-6.18,6h-5.53v5.46h-2.41v-17.44Zm7.82,9.74c2.39,0,3.91-1.49,3.91-3.75s-1.53-3.74-3.91-3.74h-5.4v7.49h5.4Z"/>
        <path class="cls-1" d="m232.24,46.78c0-5.38,3.62-9.09,8.88-9.09s8.88,3.72,8.88,9.09-3.62,9.09-8.88,9.09-8.88-3.72-8.88-9.09Zm8.88,6.79c3.81,0,6.45-2.76,6.45-6.79s-2.64-6.81-6.45-6.81-6.45,2.76-6.45,6.81,2.64,6.79,6.45,6.79Z"/>
        <path class="cls-1" d="m258.38,38.07h8.02c3.66,0,6.08,2.25,6.08,5.65,0,2.99-1.86,5.08-4.77,5.55l5.5,6.22h-3.09l-5.36-6.12h-3.95v6.12h-2.41v-17.43h-.02Zm8.06,9.04c2.25,0,3.62-1.29,3.62-3.38s-1.37-3.38-3.62-3.38h-5.65v6.77s5.65,0,5.65,0Z"/>
        <path class="cls-1" d="m287.07,38.07h2.74l7.82,17.43h-2.64l-1.66-3.81h-9.76l-1.66,3.81h-2.64l7.82-17.43h-.02Zm5.26,11.38l-3.89-8.86-3.87,8.86h7.76Z"/>
        <path class="cls-1" d="m301.76,38.07h14.08v2.27h-5.85v15.16h-2.39v-15.16h-5.85v-2.27Z"/>
        <path class="cls-1" d="m323.47,38.07h2.41v17.43h-2.41s0-17.43,0-17.43Z"/>
        <path class="cls-1" d="m333.48,38.07h2.58l3.21,7.86,2.74,6.77,5.93-14.65h2.58l-7.2,17.43h-2.64l-7.22-17.43.02.02Z"/>
        <path class="cls-1" d="m356.58,46.78c0-5.38,3.62-9.09,8.88-9.09s8.88,3.72,8.88,9.09-3.6,9.09-8.88,9.09-8.88-3.72-8.88-9.09Zm8.88,6.79c3.81,0,6.45-2.76,6.45-6.79s-2.64-6.81-6.45-6.81-6.45,2.76-6.45,6.81,2.64,6.79,6.45,6.79Z"/>
      </g>
      <g>
        <path class="cls-1" d="m389.46,38.01c.92,0,1.56.65,1.56,1.54s-.65,1.53-1.56,1.53-1.56-.65-1.56-1.53.66-1.54,1.56-1.54Zm-1.17,5.18h2.31v12.3h-2.31v-12.3Z"/>
        <path class="cls-1" d="m399.18,43.2h2.07v1.72c1.1-1.27,2.62-1.94,4.4-1.94,3.19,0,5.28,2.21,5.28,5.69v6.83h-2.31v-6.67c0-2.37-1.21-3.72-3.31-3.72-2.25,0-3.81,1.62-3.81,3.83v6.55h-2.31v-12.3h-.02Z"/>
        <path class="cls-1" d="m419.65,38.07h2.21l6.9,8.96,6.88-8.96h2.21v17.43h-2.39v-13.3l-6.45,8.33h-.55l-6.41-8.33v13.3h-2.41s0-17.43,0-17.43Z"/>
        <path class="cls-1" d="m446.27,46.78c0-5.38,3.62-9.09,8.88-9.09s8.88,3.72,8.88,9.09-3.6,9.09-8.88,9.09-8.88-3.72-8.88-9.09Zm8.88,6.79c3.81,0,6.45-2.76,6.45-6.79s-2.64-6.81-6.45-6.81-6.45,2.76-6.45,6.81,2.64,6.79,6.45,6.79Z"/>
        <path class="cls-1" d="m470.09,38.07h14.08v2.27h-5.85v15.16h-2.39v-15.16h-5.85s0-2.27,0-2.27Z"/>
        <path class="cls-1" d="m491.8,38.07h2.41v17.43h-2.41s0-17.43,0-17.43Z"/>
        <path class="cls-1" d="m502.61,46.78c0-5.38,3.62-9.09,8.88-9.09s8.88,3.72,8.88,9.09-3.6,9.09-8.88,9.09-8.88-3.72-8.88-9.09Zm8.88,6.79c3.81,0,6.45-2.76,6.45-6.79s-2.64-6.81-6.45-6.81-6.45,2.76-6.45,6.81,2.64,6.79,6.45,6.79Z"/>
        <path class="cls-1" d="m528.76,38.07h2.21l10.01,13.26v-13.26h2.41v17.43h-2.21l-10.01-13.3v13.3h-2.41v-17.43Z"/>
      </g>
    </g>
    <path class="cls-2" d="m59.44,48.2c1.22,0,2.21.99,2.21,2.21s-.99,2.21-2.21,2.21-2.21-.99-2.21-2.21.99-2.21,2.21-2.21Zm-57.23,0c-1.22,0-2.21.99-2.21,2.21s.99,2.21,2.21,2.21,2.21-.99,2.21-2.21-.99-2.21-2.21-2.21Zm42.79,29.28h8.49V26.25h-8.49v51.23Zm77.22-29.28c-1.22,0-2.21.99-2.21,2.21s.99,2.21,2.21,2.21,2.21-.99,2.21-2.21-.99-2.21-2.21-2.21Zm-91.63,2.21c0,1.22.99,2.21,2.21,2.21s2.21-.99,2.21-2.21-.99-2.21-2.21-2.21-2.21.99-2.21,2.21Zm82.69,0c0-.92-.03-1.83-.08-2.74.05.91.08,1.82.08,2.74h0Zm-3.84-19.32c.29.7.57,1.41.83,2.12-.26-.72-.54-1.42-.83-2.12Zm3.74,22.35c.01-.2.03-.41.04-.61,0,.2-.03.41-.04.61Zm-.82-12.61c-.07-.35-.14-.7-.21-1.04.07.35.14.69.21,1.04Zm.44,2.73c-.05-.39-.11-.78-.17-1.17.06.39.11.78.17,1.17Zm.24,11.76c-.02.18-.04.36-.06.54.02-.18.04-.36.06-.54Zm.08-8.8c-.04-.5-.07-1-.13-1.5.05.5.09,1,.13,1.5Zm-1.33-8.29c-.09-.34-.18-.68-.27-1.03.09.34.18.68.27,1.03Zm-.7-2.53c-.12-.39-.25-.77-.38-1.16.13.39.26.77.38,1.16Zm-8.13,45.28c.18-.24.36-.47.54-.71-.18.24-.36.48-.54.71Zm1.82-2.53c-.12.18-.24.35-.37.53.12-.18.25-.35.37-.53Zm7.94-20.49c-.01.07-.02.14-.03.22.01-.07.02-.14.03-.22Zm-4.53-29.62c.37.76.72,1.52,1.05,2.29-.33-.77-.68-1.54-1.05-2.29Zm-5.64,53.19c.14-.18.27-.36.41-.55l-.42.54h.01,0Zm8.54-45.82c.15.5.29,1,.43,1.5-.14-.5-.27-1.01-.43-1.5Zm-1.85-5.07c.07.16.13.32.2.47-.07-.16-.13-.32-.2-.47Zm1.03,2.6c.16.43.3.88.45,1.32-.15-.44-.29-.88-.45-1.32Zm2.77,22.1c.06-.62.11-1.24.14-1.87-.04.63-.08,1.25-.14,1.87Zm-.35,2.85c-1.14,7.41-3.91,14.29-7.91,20.27,4.13-6.14,6.8-13.01,7.91-20.27Zm.03-.22c.1-.69.19-1.39.27-2.1-.07.7-.16,1.4-.27,2.1Zm-9.22,22.31c.31-.42.62-.85.92-1.29-.3.43-.6.86-.92,1.29Zm9.73-27.42c.04-.8.06-1.61.06-2.42h0c0,.81-.02,1.62-.06,2.42Zm-1.43-14.61c.13.52.25,1.04.36,1.57-.11-.52-.23-1.05-.36-1.57Zm1.42,9.46c-.02-.39-.06-.78-.09-1.17.03.39.07.78.09,1.17Zm-.84-6.85c.1.52.19,1.03.28,1.55-.08-.52-.18-1.04-.28-1.55Zm.44,2.73c.07.48.13.96.18,1.45-.05-.49-.12-.97-.18-1.45Zm-8.4,35.41c.12-.18.25-.35.37-.53,4-5.98,6.77-12.86,7.91-20.27.01-.07.02-.14.03-.22.1-.69.19-1.39.27-2.1.02-.18.04-.36.06-.54.06-.62.11-1.24.14-1.87.01-.2.03-.41.04-.61.04-.8.06-1.61.06-2.42,0-.92-.03-1.83-.08-2.74-.02-.39-.06-.78-.09-1.17-.04-.5-.07-1-.13-1.5-.05-.49-.12-.97-.18-1.45-.05-.39-.11-.78-.17-1.17-.08-.52-.18-1.04-.28-1.55-.07-.35-.14-.7-.21-1.04-.11-.53-.23-1.05-.36-1.57-.09-.34-.18-.68-.27-1.03-.14-.5-.28-1.01-.43-1.5-.12-.39-.25-.77-.38-1.16-.15-.44-.29-.88-.45-1.32-.26-.71-.54-1.42-.83-2.12-.07-.16-.13-.32-.2-.47-.33-.77-.68-1.53-1.05-2.29-1.06-2.16-2.26-4.24-3.6-6.22l-17.14,25.04-17.76-20.89h-4.16v51.23h8.49v-33.03l14.16,16.66,15.08-22.02c1.02,3.65,1.54,7.44,1.54,11.32,0,9.48-3.09,18.42-8.92,25.86l6.67,5.23.42-.54c.18-.24.36-.47.54-.71.31-.42.62-.85.92-1.29h0Zm0,0c.12-.18.25-.35.37-.53,4-5.98,6.77-12.86,7.91-20.27.01-.07.02-.14.03-.22.1-.69.19-1.39.27-2.1.02-.18.04-.36.06-.54.06-.62.11-1.24.14-1.87.01-.2.03-.41.04-.61.04-.8.06-1.61.06-2.42,0-.92-.03-1.83-.08-2.74-.02-.39-.06-.78-.09-1.17-.04-.5-.07-1-.13-1.5-.05-.49-.12-.97-.18-1.45-.05-.39-.11-.78-.17-1.17-.08-.52-.18-1.04-.28-1.55-.07-.35-.14-.7-.21-1.04-.11-.53-.23-1.05-.36-1.57-.09-.34-.18-.68-.27-1.03-.14-.5-.28-1.01-.43-1.5-.12-.39-.25-.77-.38-1.16-.15-.44-.29-.88-.45-1.32-.26-.71-.54-1.42-.83-2.12-.07-.16-.13-.32-.2-.47-.33-.77-.68-1.53-1.05-2.29-1.06-2.16-2.26-4.24-3.6-6.22l-17.14,25.04-17.76-20.89h-4.16v51.23h8.49v-33.03l14.16,16.66,15.08-22.02c1.02,3.65,1.54,7.44,1.54,11.32,0,9.48-3.09,18.42-8.92,25.86l6.67,5.23.42-.54c.18-.24.36-.47.54-.71.31-.42.62-.85.92-1.29h0Zm-41.54,13.37c-23.12,0-41.92-18.81-41.92-41.92S39.75,8.49,62.86,8.49c10.03,0,19.74,3.6,27.34,10.14.2.17.4.35.6.53l.17.15,4.83-7.06s-.04-.04-.07-.06C86.6,4.33,74.93,0,62.86,0,35.06,0,12.45,22.62,12.45,50.41s22.62,50.41,50.41,50.41c10.99,0,21.39-3.46,30.14-10.01l-5.81-6.25c-7.12,5.09-15.49,7.78-24.33,7.78l.02.03Z"/>
  </g>
</svg>