<?xml version="1.0" encoding="UTF-8"?><svg xmlns="http://www.w3.org/2000/svg" xmlns:xlink="http://www.w3.org/1999/xlink" viewBox="0 0 543.15 135.48"><defs><style>.cls-1{fill:#78d04c;}.cls-1,.cls-2,.cls-3,.cls-4,.cls-5,.cls-6,.cls-7,.cls-8,.cls-9,.cls-10,.cls-11,.cls-12,.cls-13,.cls-14,.cls-15,.cls-16,.cls-17,.cls-18,.cls-19,.cls-20,.cls-21,.cls-22,.cls-23,.cls-24,.cls-25,.cls-26,.cls-27,.cls-28,.cls-29,.cls-30,.cls-31,.cls-32,.cls-33,.cls-34,.cls-35,.cls-36,.cls-37,.cls-38,.cls-39,.cls-40,.cls-41,.cls-42,.cls-43,.cls-44,.cls-45,.cls-46,.cls-47,.cls-48,.cls-49,.cls-50,.cls-51,.cls-52,.cls-53,.cls-54,.cls-55,.cls-56,.cls-57,.cls-58,.cls-59,.cls-60,.cls-61{stroke-width:0px;}.cls-2{fill:#79d04d;}.cls-3{fill:#75cd4a;}.cls-4{fill:#55af30;}.cls-5{fill:#6fc745;}.cls-6{fill:#52ac2d;}.cls-7{fill:#4fa92b;}.cls-8{fill:#63bc3b;}.cls-9{fill:#5eb737;}.cls-10{fill:#4da729;}.cls-11{fill:#6ac241;}.cls-62{clip-path:url(#clippath-2);}.cls-12{fill:#70c846;}.cls-13{fill:#84db56;}.cls-63{isolation:isolate;}.cls-14{fill:#72ca47;}.cls-15{fill:#68c140;}.cls-16{fill:#82d955;}.cls-17{fill:#5ab434;}.cls-18{fill:#7bd24f;}.cls-19{fill:none;}.cls-20{fill:#66bf3e;}.cls-64{clip-path:url(#clippath-1);}.cls-65{clip-path:url(#clippath-4);}.cls-21{fill:#5db636;}.cls-22{fill:#7ed551;}.cls-23{fill:#50aa2c;}.cls-24{fill:#53ad2e;}.cls-25{fill:#5fb838;}.cls-26{fill:#ccc;}.cls-27{fill:#56b031;}.cls-28{fill:#7dd450;}.cls-29{fill:#59b333;}.cls-30{fill:#fff;}.cls-31{fill:#5a5b59;}.cls-32{fill:#64bd3c;}.cls-33{fill:#6cc442;}.cls-34{fill:#77cf4b;}.cls-35{fill:#60b939;}.cls-36{fill:#65be3d;}.cls-37{fill:#81d854;}.cls-38{fill:#61ba3a;}.cls-39{fill:#71c946;}.cls-66{clip-path:url(#clippath);}.cls-40{fill:#7ad14e;}.cls-41{fill:#7fd652;}.cls-67{mix-blend-mode:multiply;opacity:.36;}.cls-68{clip-path:url(#clippath-3);}.cls-42{fill:#54ae2f;}.cls-43{fill:#58b232;}.cls-44{fill:#80d753;}.cls-45{fill:#62bb3b;}.cls-46{fill:#7cd350;}.cls-47{fill:#5bb535;}.cls-48{fill:#57b131;}.cls-69{clip-path:url(#clippath-5);}.cls-49{fill:#83da55;}.cls-50{fill:#74cc49;}.cls-51{fill:#6ec644;}.cls-52{fill:#5cb536;}.cls-53{fill:#73cb48;}.cls-54{fill:#6dc543;}.cls-55{fill:#67c03f;}.cls-56{fill:#51ab2c;}.cls-57{fill:#76ce4b;}.cls-58{fill:#6bc341;}.cls-59{fill:#85dc57;}.cls-60{fill:#4ea82a;}.cls-61{fill:#86dd58;}</style><clipPath id="clippath"><path class="cls-19" d="m9.55,101.84c-.47-.9-.73-1.85-.73-2.83,0-5.7,8.59-10.33,19.18-10.33s19.18,4.62,19.18,10.33l-16.73,1.53s5.15,7.57,5.15,8.93-5.85,3.15-7.6,4.41c-1.75,1.26-7.32,0-7.32,0l-9.77-8.83-1.36-3.22Z"/></clipPath><clipPath id="clippath-1"><path class="cls-19" d="m11.57,16.68C19.79,7.04,45.6,0,76.16,0c10.35,0,20.15.81,28.91,2.25,1.28.21,2.32,1.12,2.72,2.36,1.76,5.52,6.35,20.5,4.11,20.21-10.39-1.32-22.22-2.18-34.79-2.18-24.47,0-46.19,2.99-59.76,7.61l-7.95-6.4.77-4.69,1.41-2.47Z"/></clipPath><clipPath id="clippath-2"><path class="cls-19" d="m0,60.6C0,52.3,21.7,45.58,48.46,45.58s48.46,6.73,48.46,15.03l-43.14,4.91s-31.52,4.48-39.65,10.12C6.01,81.27,0,60.6,0,60.6Z"/></clipPath><clipPath id="clippath-3"><path class="cls-19" d="m146.92,31.17c-13.23,5.36-36.36,9.93-63.05,9.93-40.78,0-73.83-9.27-73.83-20.71,0-1.43.52-2.83,1.5-4.17C11.53,16.22.89,29.25.01,45.36c-.81,14.96,42.12,24.33,85.84,24.33,26.97,0,51.06-4.02,66.96-10.33,1.73-.69,2.74-2.48,2.45-4.32-1.2-7.41-4.53-25.4-8.34-23.86Z"/></clipPath><clipPath id="clippath-4"><path class="cls-19" d="m0,60.47C0,73.12,38.24,83.37,85.41,83.37c17.78,0,34.27-1.6,47.96-3.95,3.22-.55-4.88,19.19-7.66,25.74-.55,1.3-1.71,2.23-3.1,2.45-11.05,1.8-23.38,2.81-36.39,2.81C38.69,110.42.16,96.98.16,80.39L0,60.47Z"/></clipPath><clipPath id="clippath-5"><path class="cls-19" d="m56.76,119.82c-31.05-1.39-45.88-14.83-45.88-14.83,0,0,12.39,18.78,20.8,22.89,7.29,3.56,21,7.12,26.51,7.6,1.01.09,1.85-.77,1.77-1.78-.34-4.07-1.34-13.78-3.2-13.88Z"/></clipPath></defs><g class="cls-63"><g id="Capa_2"><g id="Layer_1"><g class="cls-66"><rect class="cls-61" x="8.82" y="88.68" width=".67" height="26.46"/><rect class="cls-59" x="9.5" y="88.68" width=".67" height="26.46"/><rect class="cls-13" x="10.17" y="88.68" width=".67" height="26.46"/><rect class="cls-49" x="10.84" y="88.68" width=".67" height="26.46"/><rect class="cls-16" x="11.51" y="88.68" width=".67" height="26.46"/><rect class="cls-37" x="12.19" y="88.68" width=".67" height="26.46"/><rect class="cls-44" x="12.86" y="88.68" width=".67" height="26.46"/><rect class="cls-41" x="13.53" y="88.68" width=".67" height="26.46"/><rect class="cls-22" x="14.21" y="88.68" width=".67" height="26.46"/><rect class="cls-28" x="14.88" y="88.68" width=".67" height="26.46"/><rect class="cls-46" x="15.55" y="88.68" width=".67" height="26.46"/><rect class="cls-18" x="16.23" y="88.68" width=".67" height="26.46"/><rect class="cls-40" x="16.9" y="88.68" width=".67" height="26.46"/><rect class="cls-2" x="17.57" y="88.68" width=".67" height="26.46"/><rect class="cls-1" x="18.24" y="88.68" width=".67" height="26.46"/><rect class="cls-34" x="18.92" y="88.68" width=".67" height="26.46"/><rect class="cls-57" x="19.59" y="88.68" width=".67" height="26.46"/><rect class="cls-3" x="20.26" y="88.68" width=".67" height="26.46"/><rect class="cls-50" x="20.94" y="88.68" width=".67" height="26.46"/><rect class="cls-53" x="21.61" y="88.68" width=".67" height="26.46"/><rect class="cls-14" x="22.28" y="88.68" width=".67" height="26.46"/><rect class="cls-39" x="22.95" y="88.68" width=".67" height="26.46"/><rect class="cls-12" x="23.63" y="88.68" width=".67" height="26.46"/><rect class="cls-5" x="24.3" y="88.68" width=".67" height="26.46"/><rect class="cls-51" x="24.97" y="88.68" width=".67" height="26.46"/><rect class="cls-54" x="25.65" y="88.68" width=".67" height="26.46"/><rect class="cls-33" x="26.32" y="88.68" width=".67" height="26.46"/><rect class="cls-58" x="26.99" y="88.68" width=".67" height="26.46"/><rect class="cls-11" x="27.67" y="88.68" width=".67" height="26.46"/><rect class="cls-15" x="28.34" y="88.68" width=".67" height="26.46"/><rect class="cls-55" x="29.01" y="88.68" width=".67" height="26.46"/><rect class="cls-20" x="29.68" y="88.68" width=".67" height="26.46"/><rect class="cls-36" x="30.36" y="88.68" width=".67" height="26.46"/><rect class="cls-32" x="31.03" y="88.68" width=".67" height="26.46"/><rect class="cls-8" x="31.7" y="88.68" width=".67" height="26.46"/><rect class="cls-45" x="32.38" y="88.68" width=".67" height="26.46"/><rect class="cls-38" x="33.05" y="88.68" width=".67" height="26.46"/><rect class="cls-35" x="33.72" y="88.68" width=".67" height="26.46"/><rect class="cls-25" x="34.4" y="88.68" width=".67" height="26.46"/><rect class="cls-9" x="35.07" y="88.68" width=".67" height="26.46"/><rect class="cls-21" x="35.74" y="88.68" width=".67" height="26.46"/><rect class="cls-52" x="36.41" y="88.68" width=".67" height="26.46"/><rect class="cls-47" x="37.09" y="88.68" width=".67" height="26.46"/><rect class="cls-17" x="37.76" y="88.68" width=".67" height="26.46"/><rect class="cls-29" x="38.43" y="88.68" width=".67" height="26.46"/><rect class="cls-43" x="39.11" y="88.68" width=".67" height="26.46"/><rect class="cls-48" x="39.78" y="88.68" width=".67" height="26.46"/><rect class="cls-27" x="40.45" y="88.68" width=".67" height="26.46"/><rect class="cls-4" x="41.12" y="88.68" width=".67" height="26.46"/><rect class="cls-42" x="41.8" y="88.68" width=".67" height="26.46"/><rect class="cls-24" x="42.47" y="88.68" width=".67" height="26.46"/><rect class="cls-6" x="43.14" y="88.68" width=".67" height="26.46"/><rect class="cls-56" x="43.82" y="88.68" width=".67" height="26.46"/><rect class="cls-23" x="44.49" y="88.68" width=".67" height="26.46"/><rect class="cls-7" x="45.16" y="88.68" width=".67" height="26.46"/><rect class="cls-60" x="45.84" y="88.68" width=".67" height="26.46"/><rect class="cls-10" x="46.51" y="88.68" width=".67" height="26.46"/></g><g class="cls-67"><path class="cls-31" d="m9.55,101.84c-.47-.9-.73-1.85-.73-2.83,0-5.7,8.59-10.33,19.18-10.33s19.18,4.62,19.18,10.33l-16.73,1.53s5.15,7.57,5.15,8.93-5.85,3.15-7.6,4.41c-1.75,1.26-7.32,0-7.32,0l-9.77-8.83-1.36-3.22Z"/></g><g class="cls-64"><rect class="cls-61" x="9.39" y="0" width="1.81" height="30.25"/><rect class="cls-59" x="11.2" y="0" width="1.81" height="30.25"/><rect class="cls-13" x="13.01" y="0" width="1.81" height="30.25"/><rect class="cls-49" x="14.82" y="0" width="1.81" height="30.25"/><rect class="cls-16" x="16.63" y="0" width="1.81" height="30.25"/><rect class="cls-37" x="18.44" y="0" width="1.81" height="30.25"/><rect class="cls-44" x="20.25" y="0" width="1.81" height="30.25"/><rect class="cls-41" x="22.06" y="0" width="1.81" height="30.25"/><rect class="cls-22" x="23.86" y="0" width="1.81" height="30.25"/><rect class="cls-28" x="25.67" y="0" width="1.81" height="30.25"/><rect class="cls-46" x="27.48" y="0" width="1.81" height="30.25"/><rect class="cls-18" x="29.29" y="0" width="1.81" height="30.25"/><rect class="cls-40" x="31.1" y="0" width="1.81" height="30.25"/><rect class="cls-2" x="32.91" y="0" width="1.81" height="30.25"/><rect class="cls-1" x="34.72" y="0" width="1.81" height="30.25"/><rect class="cls-34" x="36.53" y="0" width="1.81" height="30.25"/><rect class="cls-57" x="38.34" y="0" width="1.81" height="30.25"/><rect class="cls-3" x="40.14" y="0" width="1.81" height="30.25"/><rect class="cls-50" x="41.95" y="0" width="1.81" height="30.25"/><rect class="cls-53" x="43.76" y="0" width="1.81" height="30.25"/><rect class="cls-14" x="45.57" y="0" width="1.81" height="30.25"/><rect class="cls-39" x="47.38" y="0" width="1.81" height="30.25"/><rect class="cls-12" x="49.19" y="0" width="1.81" height="30.25"/><rect class="cls-5" x="51" y="0" width="1.81" height="30.25"/><rect class="cls-51" x="52.81" y="0" width="1.81" height="30.25"/><rect class="cls-54" x="54.61" y="0" width="1.81" height="30.25"/><rect class="cls-33" x="56.42" y="0" width="1.81" height="30.25"/><rect class="cls-58" x="58.23" y="0" width="1.81" height="30.25"/><rect class="cls-11" x="60.04" y="0" width="1.81" height="30.25"/><rect class="cls-15" x="61.85" y="0" width="1.81" height="30.25"/><rect class="cls-55" x="63.66" y="0" width="1.81" height="30.25"/><rect class="cls-20" x="65.47" y="0" width="1.81" height="30.25"/><rect class="cls-36" x="67.28" y="0" width="1.81" height="30.25"/><rect class="cls-32" x="69.08" y="0" width="1.81" height="30.25"/><rect class="cls-8" x="70.89" y="0" width="1.81" height="30.25"/><rect class="cls-45" x="72.7" y="0" width="1.81" height="30.25"/><rect class="cls-38" x="74.51" y="0" width="1.81" height="30.25"/><rect class="cls-35" x="76.32" y="0" width="1.81" height="30.25"/><rect class="cls-25" x="78.13" y="0" width="1.81" height="30.25"/><rect class="cls-9" x="79.94" y="0" width="1.81" height="30.25"/><rect class="cls-21" x="81.75" y="0" width="1.81" height="30.25"/><rect class="cls-52" x="83.56" y="0" width="1.81" height="30.25"/><rect class="cls-47" x="85.36" y="0" width="1.81" height="30.25"/><rect class="cls-17" x="87.17" y="0" width="1.81" height="30.25"/><rect class="cls-29" x="88.98" y="0" width="1.81" height="30.25"/><rect class="cls-43" x="90.79" y="0" width="1.81" height="30.25"/><rect class="cls-48" x="92.6" y="0" width="1.81" height="30.25"/><rect class="cls-27" x="94.41" y="0" width="1.81" height="30.25"/><rect class="cls-4" x="96.22" y="0" width="1.81" height="30.25"/><rect class="cls-42" x="98.03" y="0" width="1.81" height="30.25"/><rect class="cls-24" x="99.83" y="0" width="1.81" height="30.25"/><rect class="cls-6" x="101.64" y="0" width="1.81" height="30.25"/><rect class="cls-56" x="103.45" y="0" width="1.81" height="30.25"/><rect class="cls-23" x="105.26" y="0" width="1.81" height="30.25"/><rect class="cls-7" x="107.07" y="0" width="1.81" height="30.25"/><rect class="cls-60" x="108.88" y="0" width="1.81" height="30.25"/><rect class="cls-10" x="110.69" y="0" width="1.81" height="30.25"/><rect class="cls-10" x="112.5" y="0" width="1.64" height="30.25"/></g><g class="cls-67"><path class="cls-31" d="m11.57,16.68C19.79,7.04,45.6,0,76.16,0c10.35,0,20.15.81,28.91,2.25,1.28.21,2.32,1.12,2.72,2.36,1.76,5.52,6.35,20.5,4.11,20.21-10.39-1.32-22.22-2.18-34.79-2.18-24.47,0-46.19,2.99-59.76,7.61l-7.95-6.4.77-4.69,1.41-2.47Z"/></g><g class="cls-62"><rect class="cls-61" x="0" y="45.58" width="1.7" height="35.7"/><rect class="cls-59" x="1.7" y="45.58" width="1.7" height="35.7"/><rect class="cls-13" x="3.4" y="45.58" width="1.7" height="35.7"/><rect class="cls-49" x="5.1" y="45.58" width="1.7" height="35.7"/><rect class="cls-16" x="6.8" y="45.58" width="1.7" height="35.7"/><rect class="cls-37" x="8.5" y="45.58" width="1.7" height="35.7"/><rect class="cls-44" x="10.2" y="45.58" width="1.7" height="35.7"/><rect class="cls-41" x="11.9" y="45.58" width="1.7" height="35.7"/><rect class="cls-22" x="13.6" y="45.58" width="1.7" height="35.7"/><rect class="cls-28" x="15.3" y="45.58" width="1.7" height="35.7"/><rect class="cls-46" x="17.01" y="45.58" width="1.7" height="35.7"/><rect class="cls-18" x="18.71" y="45.58" width="1.7" height="35.7"/><rect class="cls-40" x="20.41" y="45.58" width="1.7" height="35.7"/><rect class="cls-2" x="22.11" y="45.58" width="1.7" height="35.7"/><rect class="cls-1" x="23.81" y="45.58" width="1.7" height="35.7"/><rect class="cls-34" x="25.51" y="45.58" width="1.7" height="35.7"/><rect class="cls-57" x="27.21" y="45.58" width="1.7" height="35.7"/><rect class="cls-3" x="28.91" y="45.58" width="1.7" height="35.7"/><rect class="cls-50" x="30.61" y="45.58" width="1.7" height="35.7"/><rect class="cls-53" x="32.31" y="45.58" width="1.7" height="35.7"/><rect class="cls-14" x="34.01" y="45.58" width="1.7" height="35.7"/><rect class="cls-39" x="35.71" y="45.58" width="1.7" height="35.7"/><rect class="cls-12" x="37.41" y="45.58" width="1.7" height="35.7"/><rect class="cls-5" x="39.11" y="45.58" width="1.7" height="35.7"/><rect class="cls-51" x="40.81" y="45.58" width="1.7" height="35.7"/><rect class="cls-54" x="42.51" y="45.58" width="1.7" height="35.7"/><rect class="cls-33" x="44.21" y="45.58" width="1.7" height="35.7"/><rect class="cls-58" x="45.91" y="45.58" width="1.7" height="35.7"/><rect class="cls-11" x="47.61" y="45.58" width="1.7" height="35.7"/><rect class="cls-15" x="49.32" y="45.58" width="1.7" height="35.7"/><rect class="cls-55" x="51.02" y="45.58" width="1.7" height="35.7"/><rect class="cls-20" x="52.72" y="45.58" width="1.7" height="35.7"/><rect class="cls-36" x="54.42" y="45.58" width="1.7" height="35.7"/><rect class="cls-32" x="56.12" y="45.58" width="1.7" height="35.7"/><rect class="cls-8" x="57.82" y="45.58" width="1.7" height="35.7"/><rect class="cls-45" x="59.52" y="45.58" width="1.7" height="35.7"/><rect class="cls-38" x="61.22" y="45.58" width="1.7" height="35.7"/><rect class="cls-35" x="62.92" y="45.58" width="1.7" height="35.7"/><rect class="cls-25" x="64.62" y="45.58" width="1.7" height="35.7"/><rect class="cls-9" x="66.32" y="45.58" width="1.7" height="35.7"/><rect class="cls-21" x="68.02" y="45.58" width="1.7" height="35.7"/><rect class="cls-52" x="69.72" y="45.58" width="1.7" height="35.7"/><rect class="cls-47" x="71.42" y="45.58" width="1.7" height="35.7"/><rect class="cls-17" x="73.12" y="45.58" width="1.7" height="35.7"/><rect class="cls-29" x="74.82" y="45.58" width="1.7" height="35.7"/><rect class="cls-43" x="76.52" y="45.58" width="1.7" height="35.7"/><rect class="cls-48" x="78.22" y="45.58" width="1.7" height="35.7"/><rect class="cls-27" x="79.92" y="45.58" width="1.7" height="35.7"/><rect class="cls-4" x="81.62" y="45.58" width="1.7" height="35.7"/><rect class="cls-42" x="83.33" y="45.58" width="1.7" height="35.7"/><rect class="cls-24" x="85.03" y="45.58" width="1.7" height="35.7"/><rect class="cls-6" x="86.73" y="45.58" width="1.7" height="35.7"/><rect class="cls-56" x="88.43" y="45.58" width="1.7" height="35.7"/><rect class="cls-23" x="90.13" y="45.58" width="1.7" height="35.7"/><rect class="cls-7" x="91.83" y="45.58" width="1.7" height="35.7"/><rect class="cls-60" x="93.53" y="45.58" width="1.7" height="35.7"/><rect class="cls-10" x="95.23" y="45.58" width="1.7" height="35.7"/></g><g class="cls-67"><path class="cls-31" d="m0,60.6C0,52.3,21.7,45.58,48.46,45.58s48.46,6.73,48.46,15.03l-43.14,4.91s-31.52,4.48-39.65,10.12C6.01,81.27,0,60.6,0,60.6Z"/></g><path class="cls-26" d="m187.08,33.87c0-1.67.56-3.08,1.67-4.22,1.11-1.14,2.51-1.72,4.18-1.72s3.06.57,4.18,1.72c1.11,1.15,1.67,2.55,1.67,4.22s-.56,2.97-1.67,4.08c-1.11,1.11-2.51,1.67-4.18,1.67s-3.06-.56-4.18-1.67c-1.11-1.11-1.67-2.47-1.67-4.08Zm1.95,59.78v-46.78h7.8v46.78h-7.8Z"/><path class="cls-26" d="m247.78,60.69v32.95h-7.8v-30.91c0-6.37-2.69-9.56-8.08-9.56-3.59,0-6.75,1.92-9.47,5.75-2.6,3.84-3.9,8.88-3.9,15.13v19.59h-7.8v-46.78h7.8v8.63c3.53-6.25,8.69-9.38,15.5-9.38,4.27,0,7.63,1.27,10.07,3.81,2.44,2.54,3.67,6.13,3.67,10.77Z"/><path class="cls-30" d="m264.77,93.65V28.67h10.03l17.36,45.76,17.36-45.76h10.02v64.98h-8.17v-47.34l-16.34,41.4h-5.75l-16.34-41.4v47.34h-8.17Z"/><path class="cls-30" d="m339.4,87.33c-4.08-4.76-6.13-10.46-6.13-17.08s2.04-12.22,6.13-16.99c4.21-4.76,9.65-7.15,16.34-7.15s12.16,2.38,16.24,7.15c4.15,4.7,6.22,10.37,6.22,16.99s-2.07,12.38-6.22,17.08c-4.08,4.7-9.5,7.05-16.24,7.05s-12.19-2.35-16.34-7.05Zm5.66-29.05c-2.54,3.4-3.81,7.4-3.81,11.97s1.27,8.6,3.81,12.07c2.6,3.34,6.16,5.01,10.67,5.01s8.11-1.67,10.58-5.01c2.6-3.46,3.9-7.49,3.9-12.07s-1.3-8.63-3.9-11.97c-2.48-3.4-6-5.1-10.58-5.1s-8.08,1.7-10.67,5.1Z"/><path class="cls-30" d="m393.15,53.92h-8.08v-7.05h8.08v-14.02l7.8-4.92v18.94h12.25v7.05h-12.25v25.71c0,2.48.54,4.38,1.62,5.71,1.08,1.33,2.61,2,4.59,2,2.1,0,3.87-.5,5.29-1.49l1.86,6.78c-1.98,1.17-4.52,1.76-7.61,1.76-4.21,0-7.52-1.33-9.93-3.99-2.41-2.66-3.62-6.47-3.62-11.42v-25.06Z"/><path class="cls-30" d="m424.34,33.87c0-1.67.56-3.08,1.67-4.22,1.11-1.14,2.51-1.72,4.18-1.72s3.06.57,4.18,1.72c1.11,1.15,1.67,2.55,1.67,4.22s-.56,2.97-1.67,4.08c-1.11,1.11-2.51,1.67-4.18,1.67s-3.06-.56-4.18-1.67c-1.11-1.11-1.67-2.47-1.67-4.08Zm1.95,59.78v-46.78h7.8v46.78h-7.8Z"/><path class="cls-30" d="m452.55,87.33c-4.08-4.76-6.13-10.46-6.13-17.08s2.04-12.22,6.13-16.99c4.21-4.76,9.65-7.15,16.34-7.15s12.16,2.38,16.24,7.15c4.15,4.7,6.22,10.37,6.22,16.99s-2.07,12.38-6.22,17.08c-4.08,4.7-9.5,7.05-16.24,7.05s-12.19-2.35-16.34-7.05Zm5.66-29.05c-2.54,3.4-3.81,7.4-3.81,11.97s1.27,8.6,3.81,12.07c2.6,3.34,6.16,5.01,10.67,5.01s8.11-1.67,10.58-5.01c2.6-3.46,3.9-7.49,3.9-12.07s-1.3-8.63-3.9-11.97c-2.48-3.4-6-5.1-10.58-5.1s-8.08,1.7-10.67,5.1Z"/><path class="cls-30" d="m541.29,60.69v32.95h-7.8v-30.91c0-6.37-2.69-9.56-8.08-9.56-3.59,0-6.75,1.92-9.47,5.75-2.6,3.84-3.9,8.88-3.9,15.13v19.59h-7.8v-46.78h7.8v8.63c3.53-6.25,8.69-9.38,15.5-9.38,4.27,0,7.63,1.27,10.07,3.81,2.44,2.54,3.67,6.13,3.67,10.77Z"/><path class="cls-30" d="m324.71,119.53c-.38,1.48-1.12,2.7-2.25,3.61s-2.51,1.36-4.17,1.36c-2.04,0-3.8-.73-5.25-2.2-1.43-1.48-2.16-3.54-2.16-6.19s.73-4.71,2.16-6.19c1.45-1.48,3.21-2.2,5.25-2.2,1.66,0,3.05.47,4.17,1.38s1.88,2.11,2.25,3.59l-1.99.59c-.77-2.39-2.25-3.59-4.43-3.59-1.57,0-2.84.56-3.82,1.66-.96,1.1-1.45,2.7-1.45,4.76s.49,3.66,1.45,4.76c.98,1.1,2.25,1.66,3.82,1.66,2.18,0,3.66-1.2,4.43-3.59l1.99.59Z"/><path class="cls-30" d="m330.29,118.41c0-1.66.52-3.09,1.55-4.29,1.05-1.2,2.41-1.8,4.12-1.8s3.07.61,4.1,1.8c1.05,1.2,1.57,2.62,1.57,4.29s-.52,3.12-1.57,4.31c-1.03,1.2-2.39,1.78-4.1,1.78s-3.07-.59-4.12-1.78c-1.03-1.2-1.55-2.65-1.55-4.31Zm2.02,0c0,1.17.33,2.18.96,3.05.66.84,1.55,1.27,2.7,1.27s2.04-.42,2.67-1.27c.66-.87.98-1.88.98-3.05s-.33-2.18-.98-3.02c-.63-.87-1.52-1.29-2.67-1.29s-2.04.42-2.7,1.29c-.63.84-.96,1.85-.96,3.02Z"/><path class="cls-30" d="m357.51,124.31h-1.97v-7.8c0-1.62-.68-2.41-2.04-2.41-.91,0-1.71.49-2.39,1.45-.66.96-.98,2.25-.98,3.82v4.95h-1.97v-11.81h1.97v2.18c.89-1.57,2.2-2.37,3.91-2.37,2.16,0,3.47,1.34,3.47,3.68v8.32Z"/><path class="cls-30" d="m371.43,114.12l-1.34,1.15c-.73-.77-1.43-1.17-2.16-1.17-.82,0-1.43.56-1.43,1.5-.02,2.11,5.51,1.69,5.48,5.16,0,2.34-1.5,3.75-3.91,3.75-2.23,0-3.73-1.38-4.41-3.19l1.66-.91c.63,1.55,1.55,2.32,2.74,2.32,1.27,0,1.9-.61,1.9-1.85,0-.77-.87-1.34-1.92-1.71-1.55-.59-3.52-1.34-3.52-3.59,0-1.88,1.38-3.26,3.47-3.26,1.43,0,2.58.61,3.42,1.8Z"/><path class="cls-30" d="m378.29,112.5h1.97v7.8c0,1.62.68,2.41,2.04,2.41.91,0,1.71-.49,2.37-1.45.68-.96,1.01-2.25,1.01-3.82v-4.95h1.97v11.81h-1.97v-2.18c-.89,1.57-2.2,2.37-3.91,2.37-2.16,0-3.47-1.34-3.47-3.68v-8.32Z"/><path class="cls-30" d="m394.89,107.72h1.97v16.59h-1.97v-16.59Z"/><path class="cls-30" d="m402.55,114.28v-1.78h2.04v-3.54l1.97-1.24v4.78h3.09v1.78h-3.09v6.49c0,1.24.56,1.95,1.57,1.95.52,0,.96-.12,1.34-.38l.47,1.71c-.52.3-1.15.45-1.92.45-2.09,0-3.42-1.34-3.42-3.89v-6.33h-2.04Z"/><path class="cls-30" d="m416.88,107.72c.84,0,1.48.66,1.48,1.5s-.63,1.45-1.48,1.45-1.48-.63-1.48-1.45.63-1.5,1.48-1.5Zm-.98,4.78h1.97v11.81h-1.97v-11.81Z"/><path class="cls-30" d="m434.49,124.31h-1.97v-7.8c0-1.62-.68-2.41-2.04-2.41-.91,0-1.71.49-2.39,1.45-.66.96-.98,2.25-.98,3.82v4.95h-1.97v-11.81h1.97v2.18c.89-1.57,2.2-2.37,3.91-2.37,2.16,0,3.47,1.34,3.47,3.68v8.32Z"/><path class="cls-30" d="m442.81,113.44c.77-.73,1.76-1.1,2.95-1.1.77,0,1.48.16,2.13.52l2.11-1.2.89,1.62-1.59.89c.4.61.59,1.31.59,2.13,0,1.2-.4,2.16-1.17,2.88-.77.7-1.76,1.05-2.95,1.05-.77,0-1.45-.14-2.04-.42-.52.26-.77.63-.77,1.15,0,.66.45.98,1.34.98h2.79c2.25,0,3.7,1.17,3.7,3.26,0,2.74-2.09,4.08-4.99,4.08s-5.02-1.45-5.02-3.89c0-1.01.38-1.83,1.1-2.46-.54-.45-.8-1.08-.8-1.88,0-.96.47-1.69,1.43-2.18-.59-.7-.87-1.57-.87-2.58,0-1.2.4-2.13,1.17-2.86Zm1.57,10.2c-.23,0-.52-.02-.87-.05-.52.4-.77.98-.77,1.73,0,1.34,1.08,2.23,3.05,2.23s2.98-.87,2.98-2.16c0-1.17-.66-1.76-1.99-1.76h-2.39Zm-.82-7.34c0,.7.21,1.27.63,1.66.84.77,2.3.77,3.14,0,.42-.4.63-.96.63-1.66s-.21-1.27-.63-1.66c-.84-.82-2.3-.82-3.14,0-.42.4-.63.96-.63,1.66Z"/><path class="cls-30" d="m473.93,118.01v-1.97h5.51v8.27h-1.76l-.21-2.25c-.82,1.43-2.48,2.44-4.62,2.44-2.02,0-3.75-.73-5.18-2.18s-2.13-3.52-2.13-6.21.73-4.76,2.16-6.21,3.19-2.18,5.25-2.18c3.38,0,5.7,1.9,6.45,4.97l-1.99.59c-.77-2.39-2.27-3.59-4.45-3.59-1.57,0-2.84.56-3.82,1.66-.96,1.1-1.45,2.7-1.45,4.76s.49,3.66,1.45,4.76c.98,1.1,2.25,1.66,3.82,1.66,2.74,0,4.34-1.8,4.52-4.52h-3.54Z"/><path class="cls-30" d="m493.13,114.42c-.45-.21-.89-.33-1.38-.33-.89,0-1.66.52-2.32,1.52s-.98,2.41-.98,4.22v4.48h-1.97v-11.81h1.97v2.02c.68-1.31,2.16-2.2,3.47-2.2.63,0,1.17.12,1.62.35l-.4,1.76Z"/><path class="cls-30" d="m498.1,118.41c0-1.66.52-3.09,1.55-4.29,1.05-1.2,2.41-1.8,4.12-1.8s3.07.61,4.1,1.8c1.05,1.2,1.57,2.62,1.57,4.29s-.52,3.12-1.57,4.31c-1.03,1.2-2.39,1.78-4.1,1.78s-3.07-.59-4.12-1.78c-1.03-1.2-1.55-2.65-1.55-4.31Zm2.02,0c0,1.17.33,2.18.96,3.05.66.84,1.55,1.27,2.7,1.27s2.04-.42,2.67-1.27c.66-.87.98-1.88.98-3.05s-.33-2.18-.98-3.02c-.63-.87-1.52-1.29-2.67-1.29s-2.04.42-2.7,1.29c-.63.84-.96,1.85-.96,3.02Z"/><path class="cls-30" d="m515.87,112.5h1.97v7.8c0,1.62.68,2.41,2.04,2.41.91,0,1.71-.49,2.37-1.45.68-.96,1.01-2.25,1.01-3.82v-4.95h1.97v11.81h-1.97v-2.18c-.89,1.57-2.2,2.37-3.91,2.37-2.16,0-3.47-1.34-3.47-3.68v-8.32Z"/><path class="cls-30" d="m535.82,123.98c-.68-.35-1.15-.7-1.36-1.08v6.19h-1.97v-16.59h1.97v1.45c.59-.91,2.04-1.64,3.45-1.64,3.38,0,5.25,2.44,5.25,6.09s-1.88,6.09-5.25,6.09c-.7,0-1.41-.16-2.09-.52Zm-1.52-5.58c0,2.55,1.29,4.31,3.42,4.31s3.42-1.76,3.42-4.31-1.36-4.31-3.42-4.31-3.42,1.76-3.42,4.31Z"/><g class="cls-68"><rect class="cls-61" x="-.8" y="16.22" width=".8" height="53.47"/><rect class="cls-61" x="0" y="16.22" width="2.72" height="53.47"/><rect class="cls-59" x="2.72" y="16.22" width="2.72" height="53.47"/><rect class="cls-13" x="5.45" y="16.22" width="2.72" height="53.47"/><rect class="cls-49" x="8.17" y="16.22" width="2.72" height="53.47"/><rect class="cls-16" x="10.9" y="16.22" width="2.72" height="53.47"/><rect class="cls-37" x="13.62" y="16.22" width="2.72" height="53.47"/><rect class="cls-44" x="16.35" y="16.22" width="2.72" height="53.47"/><rect class="cls-41" x="19.07" y="16.22" width="2.72" height="53.47"/><rect class="cls-22" x="21.8" y="16.22" width="2.72" height="53.47"/><rect class="cls-28" x="24.52" y="16.22" width="2.72" height="53.47"/><rect class="cls-46" x="27.25" y="16.22" width="2.72" height="53.47"/><rect class="cls-18" x="29.97" y="16.22" width="2.72" height="53.47"/><rect class="cls-40" x="32.7" y="16.22" width="2.72" height="53.47"/><rect class="cls-2" x="35.42" y="16.22" width="2.72" height="53.47"/><rect class="cls-1" x="38.15" y="16.22" width="2.72" height="53.47"/><rect class="cls-34" x="40.87" y="16.22" width="2.72" height="53.47"/><rect class="cls-57" x="43.59" y="16.22" width="2.72" height="53.47"/><rect class="cls-3" x="46.32" y="16.22" width="2.72" height="53.47"/><rect class="cls-50" x="49.04" y="16.22" width="2.72" height="53.47"/><rect class="cls-53" x="51.77" y="16.22" width="2.72" height="53.47"/><rect class="cls-14" x="54.49" y="16.22" width="2.72" height="53.47"/><rect class="cls-39" x="57.22" y="16.22" width="2.72" height="53.47"/><rect class="cls-12" x="59.94" y="16.22" width="2.72" height="53.47"/><rect class="cls-5" x="62.67" y="16.22" width="2.72" height="53.47"/><rect class="cls-51" x="65.39" y="16.22" width="2.72" height="53.47"/><rect class="cls-54" x="68.12" y="16.22" width="2.72" height="53.47"/><rect class="cls-33" x="70.84" y="16.22" width="2.72" height="53.47"/><rect class="cls-58" x="73.57" y="16.22" width="2.72" height="53.47"/><rect class="cls-11" x="76.29" y="16.22" width="2.72" height="53.47"/><rect class="cls-15" x="79.02" y="16.22" width="2.72" height="53.47"/><rect class="cls-55" x="81.74" y="16.22" width="2.72" height="53.47"/><rect class="cls-20" x="84.46" y="16.22" width="2.72" height="53.47"/><rect class="cls-36" x="87.19" y="16.22" width="2.72" height="53.47"/><rect class="cls-32" x="89.91" y="16.22" width="2.72" height="53.47"/><rect class="cls-8" x="92.64" y="16.22" width="2.72" height="53.47"/><rect class="cls-45" x="95.36" y="16.22" width="2.72" height="53.47"/><rect class="cls-38" x="98.09" y="16.22" width="2.72" height="53.47"/><rect class="cls-35" x="100.81" y="16.22" width="2.72" height="53.47"/><rect class="cls-25" x="103.54" y="16.22" width="2.72" height="53.47"/><rect class="cls-9" x="106.26" y="16.22" width="2.72" height="53.47"/><rect class="cls-21" x="108.99" y="16.22" width="2.72" height="53.47"/><rect class="cls-52" x="111.71" y="16.22" width="2.72" height="53.47"/><rect class="cls-47" x="114.44" y="16.22" width="2.72" height="53.47"/><rect class="cls-17" x="117.16" y="16.22" width="2.72" height="53.47"/><rect class="cls-29" x="119.89" y="16.22" width="2.72" height="53.47"/><rect class="cls-43" x="122.61" y="16.22" width="2.72" height="53.47"/><rect class="cls-48" x="125.33" y="16.22" width="2.72" height="53.47"/><rect class="cls-27" x="128.06" y="16.22" width="2.72" height="53.47"/><rect class="cls-4" x="130.78" y="16.22" width="2.72" height="53.47"/><rect class="cls-42" x="133.51" y="16.22" width="2.72" height="53.47"/><rect class="cls-24" x="136.23" y="16.22" width="2.72" height="53.47"/><rect class="cls-6" x="138.96" y="16.22" width="2.72" height="53.47"/><rect class="cls-56" x="141.68" y="16.22" width="2.72" height="53.47"/><rect class="cls-23" x="144.41" y="16.22" width="2.72" height="53.47"/><rect class="cls-7" x="147.13" y="16.22" width="2.72" height="53.47"/><rect class="cls-60" x="149.86" y="16.22" width="2.72" height="53.47"/><rect class="cls-10" x="152.58" y="16.22" width="2.72" height="53.47"/><rect class="cls-10" x="155.31" y="16.22" width=".25" height="53.47"/></g><g class="cls-65"><rect class="cls-61" x="0" y="60.47" width="2.35" height="49.95"/><rect class="cls-59" x="2.35" y="60.47" width="2.35" height="49.95"/><rect class="cls-13" x="4.71" y="60.47" width="2.35" height="49.95"/><rect class="cls-49" x="7.06" y="60.47" width="2.35" height="49.95"/><rect class="cls-16" x="9.41" y="60.47" width="2.35" height="49.95"/><rect class="cls-37" x="11.76" y="60.47" width="2.35" height="49.95"/><rect class="cls-44" x="14.12" y="60.47" width="2.35" height="49.95"/><rect class="cls-41" x="16.47" y="60.47" width="2.35" height="49.95"/><rect class="cls-22" x="18.82" y="60.47" width="2.35" height="49.95"/><rect class="cls-28" x="21.18" y="60.47" width="2.35" height="49.95"/><rect class="cls-46" x="23.53" y="60.47" width="2.35" height="49.95"/><rect class="cls-18" x="25.88" y="60.47" width="2.35" height="49.95"/><rect class="cls-40" x="28.24" y="60.47" width="2.35" height="49.95"/><rect class="cls-2" x="30.59" y="60.47" width="2.35" height="49.95"/><rect class="cls-1" x="32.94" y="60.47" width="2.35" height="49.95"/><rect class="cls-34" x="35.29" y="60.47" width="2.35" height="49.95"/><rect class="cls-57" x="37.65" y="60.47" width="2.35" height="49.95"/><rect class="cls-3" x="40" y="60.47" width="2.35" height="49.95"/><rect class="cls-50" x="42.35" y="60.47" width="2.35" height="49.95"/><rect class="cls-53" x="44.71" y="60.47" width="2.35" height="49.95"/><rect class="cls-14" x="47.06" y="60.47" width="2.35" height="49.95"/><rect class="cls-39" x="49.41" y="60.47" width="2.35" height="49.95"/><rect class="cls-12" x="51.77" y="60.47" width="2.35" height="49.95"/><rect class="cls-5" x="54.12" y="60.47" width="2.35" height="49.95"/><rect class="cls-51" x="56.47" y="60.47" width="2.35" height="49.95"/><rect class="cls-54" x="58.82" y="60.47" width="2.35" height="49.95"/><rect class="cls-33" x="61.18" y="60.47" width="2.35" height="49.95"/><rect class="cls-58" x="63.53" y="60.47" width="2.35" height="49.95"/><rect class="cls-11" x="65.88" y="60.47" width="2.35" height="49.95"/><rect class="cls-15" x="68.24" y="60.47" width="2.35" height="49.95"/><rect class="cls-55" x="70.59" y="60.47" width="2.35" height="49.95"/><rect class="cls-20" x="72.94" y="60.47" width="2.35" height="49.95"/><rect class="cls-36" x="75.3" y="60.47" width="2.35" height="49.95"/><rect class="cls-32" x="77.65" y="60.47" width="2.35" height="49.95"/><rect class="cls-8" x="80" y="60.47" width="2.35" height="49.95"/><rect class="cls-45" x="82.35" y="60.47" width="2.35" height="49.95"/><rect class="cls-38" x="84.71" y="60.47" width="2.35" height="49.95"/><rect class="cls-35" x="87.06" y="60.47" width="2.35" height="49.95"/><rect class="cls-25" x="89.41" y="60.47" width="2.35" height="49.95"/><rect class="cls-9" x="91.77" y="60.47" width="2.35" height="49.95"/><rect class="cls-21" x="94.12" y="60.47" width="2.35" height="49.95"/><rect class="cls-52" x="96.47" y="60.47" width="2.35" height="49.95"/><rect class="cls-47" x="98.82" y="60.47" width="2.35" height="49.95"/><rect class="cls-17" x="101.18" y="60.47" width="2.35" height="49.95"/><rect class="cls-29" x="103.53" y="60.47" width="2.35" height="49.95"/><rect class="cls-43" x="105.88" y="60.47" width="2.35" height="49.95"/><rect class="cls-48" x="108.24" y="60.47" width="2.35" height="49.95"/><rect class="cls-27" x="110.59" y="60.47" width="2.35" height="49.95"/><rect class="cls-4" x="112.94" y="60.47" width="2.35" height="49.95"/><rect class="cls-42" x="115.3" y="60.47" width="2.35" height="49.95"/><rect class="cls-24" x="117.65" y="60.47" width="2.35" height="49.95"/><rect class="cls-6" x="120" y="60.47" width="2.35" height="49.95"/><rect class="cls-56" x="122.35" y="60.47" width="2.35" height="49.95"/><rect class="cls-23" x="124.71" y="60.47" width="2.35" height="49.95"/><rect class="cls-7" x="127.06" y="60.47" width="2.35" height="49.95"/><rect class="cls-60" x="129.41" y="60.47" width="2.35" height="49.95"/><rect class="cls-10" x="131.77" y="60.47" width="2.35" height="49.95"/><rect class="cls-10" x="134.12" y="60.47" width="2.48" height="49.95"/></g><g class="cls-69"><rect class="cls-61" x="10.88" y="104.99" width=".86" height="30.57"/><rect class="cls-59" x="11.74" y="104.99" width=".86" height="30.57"/><rect class="cls-13" x="12.6" y="104.99" width=".86" height="30.57"/><rect class="cls-49" x="13.47" y="104.99" width=".86" height="30.57"/><rect class="cls-16" x="14.33" y="104.99" width=".86" height="30.57"/><rect class="cls-37" x="15.19" y="104.99" width=".86" height="30.57"/><rect class="cls-44" x="16.05" y="104.99" width=".86" height="30.57"/><rect class="cls-41" x="16.91" y="104.99" width=".86" height="30.57"/><rect class="cls-22" x="17.77" y="104.99" width=".86" height="30.57"/><rect class="cls-28" x="18.63" y="104.99" width=".86" height="30.57"/><rect class="cls-46" x="19.49" y="104.99" width=".86" height="30.57"/><rect class="cls-18" x="20.35" y="104.99" width=".86" height="30.57"/><rect class="cls-40" x="21.21" y="104.99" width=".86" height="30.57"/><rect class="cls-2" x="22.08" y="104.99" width=".86" height="30.57"/><rect class="cls-1" x="22.94" y="104.99" width=".86" height="30.57"/><rect class="cls-34" x="23.8" y="104.99" width=".86" height="30.57"/><rect class="cls-57" x="24.66" y="104.99" width=".86" height="30.57"/><rect class="cls-3" x="25.52" y="104.99" width=".86" height="30.57"/><rect class="cls-50" x="26.38" y="104.99" width=".86" height="30.57"/><rect class="cls-53" x="27.24" y="104.99" width=".86" height="30.57"/><rect class="cls-14" x="28.1" y="104.99" width=".86" height="30.57"/><rect class="cls-39" x="28.96" y="104.99" width=".86" height="30.57"/><rect class="cls-12" x="29.82" y="104.99" width=".86" height="30.57"/><rect class="cls-5" x="30.69" y="104.99" width=".86" height="30.57"/><rect class="cls-51" x="31.55" y="104.99" width=".86" height="30.57"/><rect class="cls-54" x="32.41" y="104.99" width=".86" height="30.57"/><rect class="cls-33" x="33.27" y="104.99" width=".86" height="30.57"/><rect class="cls-58" x="34.13" y="104.99" width=".86" height="30.57"/><rect class="cls-11" x="34.99" y="104.99" width=".86" height="30.57"/><rect class="cls-15" x="35.85" y="104.99" width=".86" height="30.57"/><rect class="cls-55" x="36.71" y="104.99" width=".86" height="30.57"/><rect class="cls-20" x="37.57" y="104.99" width=".86" height="30.57"/><rect class="cls-36" x="38.43" y="104.99" width=".86" height="30.57"/><rect class="cls-32" x="39.3" y="104.99" width=".86" height="30.57"/><rect class="cls-8" x="40.16" y="104.99" width=".86" height="30.57"/><rect class="cls-45" x="41.02" y="104.99" width=".86" height="30.57"/><rect class="cls-38" x="41.88" y="104.99" width=".86" height="30.57"/><rect class="cls-35" x="42.74" y="104.99" width=".86" height="30.57"/><rect class="cls-25" x="43.6" y="104.99" width=".86" height="30.57"/><rect class="cls-9" x="44.46" y="104.99" width=".86" height="30.57"/><rect class="cls-21" x="45.32" y="104.99" width=".86" height="30.57"/><rect class="cls-52" x="46.18" y="104.99" width=".86" height="30.57"/><rect class="cls-47" x="47.04" y="104.99" width=".86" height="30.57"/><rect class="cls-17" x="47.91" y="104.99" width=".86" height="30.57"/><rect class="cls-29" x="48.77" y="104.99" width=".86" height="30.57"/><rect class="cls-43" x="49.63" y="104.99" width=".86" height="30.57"/><rect class="cls-48" x="50.49" y="104.99" width=".86" height="30.57"/><rect class="cls-27" x="51.35" y="104.99" width=".86" height="30.57"/><rect class="cls-4" x="52.21" y="104.99" width=".86" height="30.57"/><rect class="cls-42" x="53.07" y="104.99" width=".86" height="30.57"/><rect class="cls-24" x="53.93" y="104.99" width=".86" height="30.57"/><rect class="cls-6" x="54.79" y="104.99" width=".86" height="30.57"/><rect class="cls-56" x="55.66" y="104.99" width=".86" height="30.57"/><rect class="cls-23" x="56.52" y="104.99" width=".86" height="30.57"/><rect class="cls-7" x="57.38" y="104.99" width=".86" height="30.57"/><rect class="cls-60" x="58.24" y="104.99" width=".86" height="30.57"/><rect class="cls-10" x="59.1" y="104.99" width=".86" height="30.57"/><rect class="cls-10" x="59.96" y="104.99" width=".08" height="30.57"/></g></g></g></g></svg>