<?xml version="1.0" encoding="UTF-8"?><svg id="Capa_2" xmlns="http://www.w3.org/2000/svg" xmlns:xlink="http://www.w3.org/1999/xlink" viewBox="0 0 192.04 212.52"><defs><style>.cls-1{fill:url(#linear-gradient);}.cls-1,.cls-2,.cls-3{stroke-width:0px;}.cls-2{fill:#fff;}.cls-3{fill:url(#linear-gradient-2);}</style><linearGradient id="linear-gradient" x1="31.38" y1="46.51" x2="91.88" y2="39.58" gradientTransform="translate(2.52 13.27) rotate(2.75)" gradientUnits="userSpaceOnUse"><stop offset="0" stop-color="#1fb3db"/><stop offset="1" stop-color="#146e8e"/></linearGradient><linearGradient id="linear-gradient-2" x1="95.05" y1="48.04" x2="146.89" y2="39.72" gradientTransform="translate(2.52 13.27) rotate(2.75)" gradientUnits="userSpaceOnUse"><stop offset="0" stop-color="#21cc8d"/><stop offset="1" stop-color="#177a52"/></linearGradient></defs><g id="Layer_1"><path class="cls-2" d="m39.49,148.8v40.48h-9.02v-5.15c-1.52,1.82-3.41,3.22-5.69,4.21-2.27.99-4.73,1.48-7.35,1.48-5.41,0-9.67-1.5-12.77-4.51-3.11-3.01-4.66-7.47-4.66-13.38v-23.12h9.48v21.83c0,3.64.82,6.36,2.46,8.15,1.64,1.79,3.98,2.69,7.01,2.69,3.38,0,6.08-1.05,8.07-3.15,2-2.1,2.99-5.12,2.99-9.06v-20.47h9.48Z"/><path class="cls-2" d="m53.67,188.52c-3.13-.86-5.64-1.95-7.5-3.26l3.64-7.2c1.82,1.21,4,2.19,6.56,2.92,2.55.73,5.07,1.1,7.54,1.1,5.66,0,8.49-1.49,8.49-4.47,0-1.41-.72-2.4-2.16-2.96-1.44-.56-3.75-1.09-6.94-1.59-3.33-.5-6.05-1.09-8.15-1.74-2.1-.66-3.92-1.81-5.46-3.45-1.54-1.64-2.31-3.93-2.31-6.86,0-3.84,1.6-6.91,4.81-9.21,3.21-2.3,7.54-3.45,13-3.45,2.78,0,5.56.32,8.34.95,2.78.63,5.05,1.48,6.82,2.54l-3.64,7.2c-3.44-2.02-7.3-3.03-11.6-3.03-2.78,0-4.89.42-6.33,1.25s-2.16,1.93-2.16,3.3c0,1.52.77,2.59,2.31,3.22,1.54.63,3.93,1.23,7.16,1.78,3.23.51,5.89,1.09,7.96,1.74,2.07.66,3.85,1.77,5.34,3.34,1.49,1.57,2.24,3.79,2.24,6.67,0,3.79-1.64,6.82-4.93,9.1-3.29,2.27-7.76,3.41-13.42,3.41-3.29,0-6.49-.43-9.63-1.29Z"/><path class="cls-2" d="m88.95,140.5c-1.16-1.09-1.74-2.44-1.74-4.06s.58-2.97,1.74-4.06c1.16-1.09,2.6-1.63,4.32-1.63s3.16.52,4.32,1.55c1.16,1.04,1.74,2.34,1.74,3.9,0,1.67-.57,3.07-1.71,4.21-1.14,1.14-2.59,1.71-4.36,1.71s-3.16-.54-4.32-1.63Zm-.46,8.3h9.48v40.48h-9.48v-40.48Z"/><path class="cls-2" d="m143.53,152.82c3.08,2.98,4.62,7.4,4.62,13.27v23.2h-9.48v-21.98c0-3.54-.83-6.2-2.5-8-1.67-1.79-4.04-2.69-7.13-2.69-3.49,0-6.24,1.05-8.26,3.15-2.02,2.1-3.03,5.12-3.03,9.06v20.47h-9.48v-40.48h9.02v5.23c1.57-1.87,3.54-3.28,5.91-4.25,2.38-.96,5.05-1.44,8.04-1.44,5.1,0,9.2,1.49,12.28,4.47Z"/><path class="cls-2" d="m187.31,152.63c3.16,2.86,4.74,7.16,4.74,12.92v23.73h-8.95v-4.93c-1.16,1.77-2.82,3.12-4.97,4.06-2.15.93-4.74,1.4-7.77,1.4s-5.69-.52-7.96-1.55-4.03-2.48-5.27-4.32c-1.24-1.84-1.86-3.93-1.86-6.25,0-3.64,1.35-6.56,4.06-8.76,2.7-2.2,6.96-3.3,12.77-3.3h10.46v-.61c0-2.83-.85-5-2.54-6.52-1.69-1.52-4.21-2.27-7.54-2.27-2.27,0-4.51.35-6.71,1.06-2.2.71-4.06,1.69-5.57,2.96l-3.71-6.9c2.12-1.62,4.67-2.85,7.66-3.71,2.98-.86,6.14-1.29,9.48-1.29,5.96,0,10.52,1.43,13.68,4.28Zm-8.64,28.65c1.84-1.09,3.15-2.64,3.9-4.66v-4.7h-9.78c-5.46,0-8.19,1.79-8.19,5.38,0,1.72.68,3.08,2.05,4.09,1.36,1.01,3.26,1.52,5.69,1.52s4.48-.54,6.33-1.63Z"/><path class="cls-2" d="m20.11,211.37v1.05h-8.14v-11.52h7.9v1.05h-6.68v4.1h5.96v1.04h-5.96v4.28h6.93Z"/><path class="cls-2" d="m35.96,200.9v11.52h-1.17v-9.21l-4.52,7.75h-.58l-4.52-7.7v9.16h-1.17v-11.52h1l5,8.54,4.95-8.54h1Z"/><path class="cls-2" d="m48.81,201.96c.83.7,1.25,1.67,1.25,2.9s-.42,2.19-1.25,2.89c-.83.7-1.98,1.04-3.45,1.04h-3.09v3.64h-1.22v-11.52h4.31c1.47,0,2.62.35,3.45,1.05Zm-.87,5.01c.6-.5.9-1.2.9-2.11s-.3-1.65-.9-2.15c-.6-.5-1.48-.75-2.62-.75h-3.06v5.76h3.06c1.14,0,2.01-.25,2.62-.75Z"/><path class="cls-2" d="m61.93,212.42l-2.63-3.7c-.3.03-.6.05-.92.05h-3.09v3.65h-1.22v-11.52h4.31c1.47,0,2.62.35,3.45,1.05.83.7,1.25,1.67,1.25,2.9,0,.9-.23,1.66-.68,2.28-.46.62-1.11,1.07-1.95,1.34l2.81,3.95h-1.33Zm-.97-5.45c.6-.5.9-1.21.9-2.12s-.3-1.65-.9-2.15c-.6-.5-1.48-.75-2.62-.75h-3.06v5.77h3.06c1.14,0,2.01-.25,2.62-.76Z"/><path class="cls-2" d="m75.57,211.37v1.05h-8.14v-11.52h7.9v1.05h-6.68v4.1h5.96v1.04h-5.96v4.28h6.93Z"/><path class="cls-2" d="m89.09,200.9v11.52h-1l-7.4-9.34v9.34h-1.22v-11.52h1l7.42,9.34v-9.34h1.2Z"/><path class="cls-2" d="m94.18,200.9h4.69c1.22,0,2.29.24,3.22.73.93.49,1.66,1.17,2.17,2.04.52.87.77,1.87.77,2.99s-.26,2.11-.77,2.99c-.52.87-1.24,1.55-2.17,2.04-.93.49-2.01.73-3.22.73h-4.69v-11.52Zm4.62,10.46c1.01,0,1.89-.2,2.65-.6s1.34-.95,1.76-1.66c.42-.71.62-1.52.62-2.44s-.21-1.74-.62-2.44c-.42-.71-1-1.26-1.76-1.66s-1.64-.6-2.65-.6h-3.41v9.41h3.41Z"/><path class="cls-2" d="m117.4,211.37v1.05h-8.14v-11.52h7.9v1.05h-6.68v4.1h5.96v1.04h-5.96v4.28h6.93Z"/><path class="cls-2" d="m121.29,200.9h4.69c1.22,0,2.29.24,3.22.73.93.49,1.66,1.17,2.17,2.04.52.87.77,1.87.77,2.99s-.26,2.11-.77,2.99c-.52.87-1.24,1.55-2.17,2.04-.93.49-2.01.73-3.22.73h-4.69v-11.52Zm4.62,10.46c1.01,0,1.89-.2,2.65-.6s1.34-.95,1.76-1.66c.42-.71.62-1.52.62-2.44s-.21-1.74-.62-2.44c-.42-.71-1-1.26-1.76-1.66s-1.64-.6-2.65-.6h-3.41v9.41h3.41Z"/><path class="cls-2" d="m138.49,211.75c-.93-.51-1.65-1.21-2.17-2.1-.52-.89-.78-1.89-.78-2.99s.26-2.11.78-2.99c.52-.89,1.25-1.59,2.17-2.1.93-.51,1.96-.76,3.1-.76s2.17.25,3.08.76c.92.5,1.64,1.2,2.16,2.1s.79,1.89.79,3-.26,2.11-.79,3c-.53.89-1.25,1.59-2.16,2.1-.92.5-1.94.76-3.08.76s-2.17-.25-3.1-.77Zm5.57-.94c.73-.41,1.31-.98,1.73-1.71s.62-1.54.62-2.44-.21-1.71-.62-2.44c-.42-.73-.99-1.3-1.73-1.71-.74-.41-1.56-.62-2.47-.62s-1.74.21-2.48.62-1.32.98-1.74,1.71c-.42.73-.63,1.54-.63,2.44s.21,1.71.63,2.44c.42.73,1,1.3,1.74,1.71.74.41,1.57.62,2.48.62s1.73-.21,2.47-.62Z"/><path class="cls-2" d="m159.71,212.42l-2.63-3.7c-.3.03-.6.05-.92.05h-3.09v3.65h-1.22v-11.52h4.31c1.47,0,2.62.35,3.45,1.05.83.7,1.25,1.67,1.25,2.9,0,.9-.23,1.66-.68,2.28-.46.62-1.11,1.07-1.95,1.34l2.81,3.95h-1.33Zm-.97-5.45c.6-.5.9-1.21.9-2.12s-.3-1.65-.9-2.15c-.6-.5-1.48-.75-2.62-.75h-3.06v5.77h3.06c1.14,0,2.01-.25,2.62-.76Z"/><path class="cls-2" d="m173.01,209.34h-6.42l-1.38,3.08h-1.27l5.26-11.52h1.2l5.26,11.52h-1.28l-1.38-3.08Zm-.44-.99l-2.76-6.19-2.76,6.19h5.53Z"/><path class="cls-1" d="m132.24,100.23s-23.2,11.86-35.35,1.02c-12.15-10.84-17.25-30.4-19.34-56.15C75.47,19.35,69.72.69,55.87.03c-13.85-.66-24.62,9.96-23.14,35.68,1.48,25.72,9.91,63.84,33.52,74.93,23.61,11.09,49.76,6.91,65.98-10.41Z"/><path class="cls-3" d="m107.12,101.74s15.2-2.29,8.15-12.58-25.45-29.28-18.28-46.74c7.17-17.46,26.09-25.28,38.43-8.42,12.81,17.51,14.68,44.28,6.72,54.94-6.45,8.64-20.64,15-35.01,12.81Z"/></g></svg>