<?xml version="1.0" encoding="UTF-8"?><svg id="Capa_2" xmlns="http://www.w3.org/2000/svg" xmlns:xlink="http://www.w3.org/1999/xlink" viewBox="0 0 98.43 79.75"><defs><style>.cls-1{fill:url(#Degradado_sin_nombre_2);stroke-width:0px;}</style><linearGradient id="Degradado_sin_nombre_2" x1="49.21" y1="1022.05" x2="49.21" y2="941.94" gradientTransform="translate(0 -942)" gradientUnits="userSpaceOnUse"><stop offset="0" stop-color="#855d25"/><stop offset="1" stop-color="#f0ce92"/></linearGradient></defs><g id="Capa_1-2"><path class="cls-1" d="m47.02,38.13c.97,0,1.75.78,1.75,1.75s-.78,1.75-1.75,1.75-1.75-.78-1.75-1.75.78-1.75,1.75-1.75Zm-45.27,0c-.97,0-1.75.78-1.75,1.75s.78,1.75,1.75,1.75,1.75-.78,1.75-1.75-.78-1.75-1.75-1.75Zm33.85,23.16h6.72V20.76h-6.72v40.52Zm61.08-23.16c-.97,0-1.75.78-1.75,1.75s.78,1.75,1.75,1.75,1.75-.78,1.75-1.75-.78-1.75-1.75-1.75Zm-72.48,1.75c0,.97.78,1.75,1.75,1.75s1.75-.78,1.75-1.75-.78-1.75-1.75-1.75-1.75.78-1.75,1.75Zm65.41,0c0-.73-.02-1.45-.06-2.17.04.72.06,1.44.06,2.17h0Zm-3.04-15.28c.23.55.45,1.12.66,1.68-.21-.57-.43-1.12-.66-1.68Zm2.96,17.68c0-.16.02-.32.03-.48,0,.16-.02.32-.03.48Zm-.65-9.97c-.06-.28-.11-.55-.17-.82.06.28.11.55.17.82Zm.35,2.16c-.04-.31-.09-.62-.13-.93.05.31.09.62.13.93Zm.19,9.3c-.02.14-.03.28-.05.43.02-.14.03-.28.05-.43Zm.06-6.96c-.03-.4-.06-.79-.1-1.19.04.4.07.79.1,1.19Zm-1.05-6.56c-.07-.27-.14-.54-.21-.81.07.27.14.54.21.81Zm-.55-2c-.09-.31-.2-.61-.3-.92.1.31.21.61.3.92Zm-6.43,35.82c.14-.19.28-.37.43-.56-.14.19-.28.38-.43.56Zm1.44-2c-.09.14-.19.28-.29.42.09-.14.2-.28.29-.42Zm6.28-16.21c0,.06-.02.11-.02.17,0-.06.02-.11.02-.17Zm-3.58-23.43c.29.6.57,1.2.83,1.81-.26-.61-.54-1.22-.83-1.81Zm-4.46,42.08c.11-.14.21-.28.32-.44l-.33.43h0,0Zm6.76-36.25c.12.4.23.79.34,1.19-.11-.4-.21-.8-.34-1.19Zm-1.46-4.01c.06.13.1.25.16.37-.06-.13-.1-.25-.16-.37Zm.81,2.06c.13.34.24.7.36,1.04-.12-.35-.23-.7-.36-1.04Zm2.19,17.48c.05-.49.09-.98.11-1.48-.03.5-.06.99-.11,1.48Zm-.28,2.25c-.9,5.86-3.09,11.3-6.26,16.03,3.27-4.86,5.38-10.29,6.26-16.03Zm.02-.17c.08-.55.15-1.1.21-1.66-.06.55-.13,1.11-.21,1.66Zm-7.29,17.65c.25-.33.49-.67.73-1.02-.24.34-.47.68-.73,1.02Zm7.7-21.69c.03-.63.05-1.27.05-1.91h0c0,.64-.02,1.28-.05,1.91Zm-1.13-11.56c.1.41.2.82.28,1.24-.09-.41-.18-.83-.28-1.24Zm1.12,7.48c-.02-.31-.05-.62-.07-.93.02.31.06.62.07.93Zm-.66-5.42c.08.41.15.81.22,1.23-.06-.41-.14-.82-.22-1.23Zm.35,2.16c.06.38.1.76.14,1.15-.04-.39-.09-.77-.14-1.15Zm-6.64,28.01c.09-.14.2-.28.29-.42,3.16-4.73,5.36-10.17,6.26-16.03,0-.06.02-.11.02-.17.08-.55.15-1.1.21-1.66.02-.14.03-.28.05-.43.05-.49.09-.98.11-1.48,0-.16.02-.32.03-.48.03-.63.05-1.27.05-1.91,0-.73-.02-1.45-.06-2.17-.02-.31-.05-.62-.07-.93-.03-.4-.06-.79-.1-1.19-.04-.39-.09-.77-.14-1.15-.04-.31-.09-.62-.13-.93-.06-.41-.14-.82-.22-1.23-.06-.28-.11-.55-.17-.82-.09-.42-.18-.83-.28-1.24-.07-.27-.14-.54-.21-.81-.11-.4-.22-.8-.34-1.19-.09-.31-.2-.61-.3-.92-.12-.35-.23-.7-.36-1.04-.21-.56-.43-1.12-.66-1.68-.06-.13-.1-.25-.16-.37-.26-.61-.54-1.21-.83-1.81-.84-1.71-1.79-3.35-2.85-4.92l-13.56,19.81-14.05-16.52h-3.29v40.52h6.72v-26.13l11.2,13.18,11.93-17.42c.81,2.89,1.22,5.89,1.22,8.95,0,7.5-2.44,14.57-7.06,20.46l5.28,4.14.33-.43c.14-.19.28-.37.43-.56.25-.33.49-.67.73-1.02h0Zm0,0c.09-.14.2-.28.29-.42,3.16-4.73,5.36-10.17,6.26-16.03,0-.06.02-.11.02-.17.08-.55.15-1.1.21-1.66.02-.14.03-.28.05-.43.05-.49.09-.98.11-1.48,0-.16.02-.32.03-.48.03-.63.05-1.27.05-1.91,0-.73-.02-1.45-.06-2.17-.02-.31-.05-.62-.07-.93-.03-.4-.06-.79-.1-1.19-.04-.39-.09-.77-.14-1.15-.04-.31-.09-.62-.13-.93-.06-.41-.14-.82-.22-1.23-.06-.28-.11-.55-.17-.82-.09-.42-.18-.83-.28-1.24-.07-.27-.14-.54-.21-.81-.11-.4-.22-.8-.34-1.19-.09-.31-.2-.61-.3-.92-.12-.35-.23-.7-.36-1.04-.21-.56-.43-1.12-.66-1.68-.06-.13-.1-.25-.16-.37-.26-.61-.54-1.21-.83-1.81-.84-1.71-1.79-3.35-2.85-4.92l-13.56,19.81-14.05-16.52h-3.29v40.52h6.72v-26.13l11.2,13.18,11.93-17.42c.81,2.89,1.22,5.89,1.22,8.95,0,7.5-2.44,14.57-7.06,20.46l5.28,4.14.33-.43c.14-.19.28-.37.43-.56.25-.33.49-.67.73-1.02h0Zm-32.86,10.58c-18.29,0-33.16-14.88-33.16-33.16S31.44,6.72,49.72,6.72c7.93,0,15.61,2.85,21.63,8.02.16.13.32.28.47.42l.13.12,3.82-5.58s-.03-.03-.06-.05C68.5,3.43,59.27,0,49.72,0,27.73,0,9.85,17.89,9.85,39.88s17.89,39.88,39.88,39.88c8.69,0,16.92-2.74,23.84-7.92l-4.6-4.94c-5.63,4.03-12.25,6.15-19.25,6.15l.02.02h0Z"/></g></svg>