<?xml version="1.0" encoding="UTF-8"?>
<svg id="Capa_2" data-name="Capa 2" xmlns="http://www.w3.org/2000/svg" xmlns:xlink="http://www.w3.org/1999/xlink" viewBox="0 0 124.43 136">
  <defs>
    <style>
      .cls-1 {
        fill: #c49d5d;
      }

      .cls-1, .cls-2 {
        stroke-width: 0px;
      }

      .cls-2 {
        fill: url(#Degradado_sin_nombre);
      }
    </style>
    <linearGradient id="Degradado_sin_nombre" data-name="Degradado sin nombre" x1="62.22" y1="36.8" x2="62.22" y2="138.08" gradientTransform="translate(0 138) scale(1 -1)" gradientUnits="userSpaceOnUse">
      <stop offset="0" stop-color="#855d25"/>
      <stop offset="1" stop-color="#f0ce92"/>
    </linearGradient>
  </defs>
  <g id="Capa_2-2" data-name="Capa 2">
    <g>
      <path class="cls-1" d="m1.69,116.07c0-2.71,1.91-4.63,4.63-4.63,1.27,0,2.41.47,3.28,1.38l-.85.76c-.62-.65-1.44-.98-2.39-.98-2.02,0-3.42,1.41-3.42,3.48s1.4,3.47,3.42,3.47c.93,0,1.83-.36,2.48-.99l.81.83c-.88.87-2.01,1.32-3.34,1.32-2.72,0-4.63-1.92-4.63-4.63h0Z"/>
      <path class="cls-1" d="m12.98,116.07c0-2.75,1.85-4.65,4.54-4.65s4.54,1.9,4.54,4.65-1.85,4.65-4.54,4.65-4.54-1.9-4.54-4.65Zm4.54,3.47c1.95,0,3.3-1.41,3.3-3.47s-1.35-3.48-3.3-3.48-3.3,1.41-3.3,3.48,1.35,3.47,3.3,3.47Z"/>
      <path class="cls-1" d="m26.36,111.62h4.1c1.87,0,3.11,1.15,3.11,2.89,0,1.53-.95,2.6-2.44,2.84l2.81,3.18h-1.58l-2.74-3.13h-2.02v3.13h-1.23v-8.91h0Zm4.12,4.62c1.15,0,1.85-.66,1.85-1.73s-.7-1.73-1.85-1.73h-2.89v3.46s2.89,0,2.89,0Z"/>
      <path class="cls-1" d="m38.03,111.62h4.06c1.92,0,3.16,1.23,3.16,3.06s-1.24,3.07-3.16,3.07h-2.83v2.79h-1.23v-8.91h0Zm4,4.98c1.22,0,2-.76,2-1.92s-.78-1.91-2-1.91h-2.76v3.83h2.76Z"/>
      <path class="cls-1" d="m48.77,116.07c0-2.75,1.85-4.65,4.54-4.65s4.54,1.9,4.54,4.65-1.85,4.65-4.54,4.65-4.54-1.9-4.54-4.65Zm4.54,3.47c1.95,0,3.3-1.41,3.3-3.47s-1.35-3.48-3.3-3.48-3.3,1.41-3.3,3.48,1.35,3.47,3.3,3.47Z"/>
      <path class="cls-1" d="m62.14,111.62h4.1c1.87,0,3.11,1.15,3.11,2.89,0,1.53-.95,2.6-2.44,2.84l2.81,3.18h-1.58l-2.74-3.13h-2.02v3.13h-1.23v-8.91h0Zm4.12,4.62c1.15,0,1.85-.66,1.85-1.73s-.7-1.73-1.85-1.73h-2.89v3.46s2.89,0,2.89,0Z"/>
      <path class="cls-1" d="m76.81,111.62h1.4l4,8.91h-1.35l-.85-1.95h-4.99l-.85,1.95h-1.35l4-8.91h-.01Zm2.69,5.82l-1.99-4.53-1.98,4.53h3.97Z"/>
      <path class="cls-1" d="m84.32,111.62h7.2v1.16h-2.99v7.75h-1.22v-7.75h-2.99v-1.16Z"/>
      <path class="cls-1" d="m95.42,111.62h1.23v8.91h-1.23s0-8.91,0-8.91Z"/>
      <path class="cls-1" d="m100.54,111.62h1.32l1.64,4.02,1.4,3.46,3.03-7.49h1.32l-3.68,8.91h-1.35l-3.69-8.91h.01Z"/>
      <path class="cls-1" d="m112.35,116.07c0-2.75,1.85-4.65,4.54-4.65s4.54,1.9,4.54,4.65-1.84,4.65-4.54,4.65-4.54-1.9-4.54-4.65Zm4.54,3.47c1.95,0,3.3-1.41,3.3-3.47s-1.35-3.48-3.3-3.48-3.3,1.41-3.3,3.48,1.35,3.47,3.3,3.47Z"/>
    </g>
    <g>
      <path class="cls-1" d="m22.39,126.87c.47,0,.8.33.8.79s-.33.78-.8.78-.8-.33-.8-.78.34-.79.8-.79Zm-.6,2.65h1.18v6.29h-1.18v-6.29Z"/>
      <path class="cls-1" d="m27.36,129.52h1.06v.88c.56-.65,1.34-.99,2.25-.99,1.63,0,2.7,1.13,2.7,2.91v3.49h-1.18v-3.41c0-1.21-.62-1.9-1.69-1.9-1.15,0-1.95.83-1.95,1.96v3.35h-1.18v-6.29h0Z"/>
      <path class="cls-1" d="m37.83,126.9h1.13l3.53,4.58,3.52-4.58h1.13v8.91h-1.22v-6.8l-3.3,4.26h-.28l-3.28-4.26v6.8h-1.23s0-8.91,0-8.91Z"/>
      <path class="cls-1" d="m51.44,131.35c0-2.75,1.85-4.65,4.54-4.65s4.54,1.9,4.54,4.65-1.84,4.65-4.54,4.65-4.54-1.9-4.54-4.65Zm4.54,3.47c1.95,0,3.3-1.41,3.3-3.47s-1.35-3.48-3.3-3.48-3.3,1.41-3.3,3.48,1.35,3.47,3.3,3.47Z"/>
      <path class="cls-1" d="m63.62,126.9h7.2v1.16h-2.99v7.75h-1.22v-7.75h-2.99s0-1.16,0-1.16Z"/>
      <path class="cls-1" d="m74.72,126.9h1.23v8.91h-1.23s0-8.91,0-8.91Z"/>
      <path class="cls-1" d="m80.25,131.35c0-2.75,1.85-4.65,4.54-4.65s4.54,1.9,4.54,4.65-1.84,4.65-4.54,4.65-4.54-1.9-4.54-4.65Zm4.54,3.47c1.95,0,3.3-1.41,3.3-3.47s-1.35-3.48-3.3-3.48-3.3,1.41-3.3,3.48,1.35,3.47,3.3,3.47Z"/>
      <path class="cls-1" d="m93.62,126.9h1.13l5.12,6.78v-6.78h1.23v8.91h-1.13l-5.12-6.8v6.8h-1.23v-8.91Z"/>
    </g>
    <path class="cls-2" d="m59.44,48.2c1.22,0,2.21.99,2.21,2.21s-.99,2.21-2.21,2.21-2.21-.99-2.21-2.21.99-2.21,2.21-2.21Zm-57.23,0c-1.22,0-2.21.99-2.21,2.21s.99,2.21,2.21,2.21,2.21-.99,2.21-2.21-.99-2.21-2.21-2.21Zm42.79,29.28h8.49V26.25h-8.49v51.23Zm77.22-29.28c-1.22,0-2.21.99-2.21,2.21s.99,2.21,2.21,2.21,2.21-.99,2.21-2.21-.99-2.21-2.21-2.21Zm-91.63,2.21c0,1.22.99,2.21,2.21,2.21s2.21-.99,2.21-2.21-.99-2.21-2.21-2.21-2.21.99-2.21,2.21Zm82.69,0c0-.92-.03-1.83-.08-2.74.05.91.08,1.82.08,2.74h0Zm-3.84-19.32c.29.7.57,1.41.83,2.12-.26-.72-.54-1.42-.83-2.12Zm3.74,22.35c.01-.2.03-.41.04-.61,0,.2-.03.41-.04.61Zm-.82-12.61c-.07-.35-.14-.7-.21-1.04.07.35.14.69.21,1.04Zm.44,2.73c-.05-.39-.11-.78-.17-1.17.06.39.11.78.17,1.17Zm.24,11.76c-.02.18-.04.36-.06.54.02-.18.04-.36.06-.54Zm.08-8.8c-.04-.5-.07-1-.13-1.5.05.5.09,1,.13,1.5Zm-1.33-8.29c-.09-.34-.18-.68-.27-1.03.09.34.18.68.27,1.03Zm-.7-2.53c-.12-.39-.25-.77-.38-1.16.13.39.26.77.38,1.16Zm-8.13,45.28c.18-.24.36-.47.54-.71-.18.24-.36.48-.54.71Zm1.82-2.53c-.12.18-.24.35-.37.53.12-.18.25-.35.37-.53Zm7.94-20.49c-.01.07-.02.14-.03.22.01-.07.02-.14.03-.22Zm-4.53-29.62c.37.76.72,1.52,1.05,2.29-.33-.77-.68-1.54-1.05-2.29Zm-5.64,53.19c.14-.18.27-.36.41-.55l-.42.54h.01,0Zm8.54-45.82c.15.5.29,1,.43,1.5-.14-.5-.27-1.01-.43-1.5Zm-1.85-5.07c.07.16.13.32.2.47-.07-.16-.13-.32-.2-.47Zm1.03,2.6c.16.43.3.88.45,1.32-.15-.44-.29-.88-.45-1.32Zm2.77,22.1c.06-.62.11-1.24.14-1.87-.04.63-.08,1.25-.14,1.87Zm-.35,2.85c-1.14,7.41-3.91,14.29-7.91,20.27,4.13-6.14,6.8-13.01,7.91-20.27Zm.03-.22c.1-.69.19-1.39.27-2.1-.07.7-.16,1.4-.27,2.1Zm-9.22,22.31c.31-.42.62-.85.92-1.29-.3.43-.6.86-.92,1.29Zm9.73-27.42c.04-.8.06-1.61.06-2.42h0c0,.81-.02,1.62-.06,2.42Zm-1.43-14.61c.13.52.25,1.04.36,1.57-.11-.52-.23-1.05-.36-1.57Zm1.42,9.46c-.02-.39-.06-.78-.09-1.17.03.39.07.78.09,1.17Zm-.84-6.85c.1.52.19,1.03.28,1.55-.08-.52-.18-1.04-.28-1.55Zm.44,2.73c.07.48.13.96.18,1.45-.05-.49-.12-.97-.18-1.45Zm-8.4,35.41c.12-.18.25-.35.37-.53,4-5.98,6.77-12.86,7.91-20.27.01-.07.02-.14.03-.22.1-.69.19-1.39.27-2.1.02-.18.04-.36.06-.54.06-.62.11-1.24.14-1.87.01-.2.03-.41.04-.61.04-.8.06-1.61.06-2.42,0-.92-.03-1.83-.08-2.74-.02-.39-.06-.78-.09-1.17-.04-.5-.07-1-.13-1.5-.05-.49-.12-.97-.18-1.45-.05-.39-.11-.78-.17-1.17-.08-.52-.18-1.04-.28-1.55-.07-.35-.14-.7-.21-1.04-.11-.53-.23-1.05-.36-1.57-.09-.34-.18-.68-.27-1.03-.14-.5-.28-1.01-.43-1.5-.12-.39-.25-.77-.38-1.16-.15-.44-.29-.88-.45-1.32-.26-.71-.54-1.42-.83-2.12-.07-.16-.13-.32-.2-.47-.33-.77-.68-1.53-1.05-2.29-1.06-2.16-2.26-4.24-3.6-6.22l-17.14,25.04-17.76-20.89h-4.16v51.23h8.49v-33.03l14.16,16.66,15.08-22.02c1.02,3.65,1.54,7.44,1.54,11.32,0,9.48-3.09,18.42-8.92,25.86l6.67,5.23.42-.54c.18-.24.36-.47.54-.71.31-.42.62-.85.92-1.29h0Zm0,0c.12-.18.25-.35.37-.53,4-5.98,6.77-12.86,7.91-20.27.01-.07.02-.14.03-.22.1-.69.19-1.39.27-2.1.02-.18.04-.36.06-.54.06-.62.11-1.24.14-1.87.01-.2.03-.41.04-.61.04-.8.06-1.61.06-2.42,0-.92-.03-1.83-.08-2.74-.02-.39-.06-.78-.09-1.17-.04-.5-.07-1-.13-1.5-.05-.49-.12-.97-.18-1.45-.05-.39-.11-.78-.17-1.17-.08-.52-.18-1.04-.28-1.55-.07-.35-.14-.7-.21-1.04-.11-.53-.23-1.05-.36-1.57-.09-.34-.18-.68-.27-1.03-.14-.5-.28-1.01-.43-1.5-.12-.39-.25-.77-.38-1.16-.15-.44-.29-.88-.45-1.32-.26-.71-.54-1.42-.83-2.12-.07-.16-.13-.32-.2-.47-.33-.77-.68-1.53-1.05-2.29-1.06-2.16-2.26-4.24-3.6-6.22l-17.14,25.04-17.76-20.89h-4.16v51.23h8.49v-33.03l14.16,16.66,15.08-22.02c1.02,3.65,1.54,7.44,1.54,11.32,0,9.48-3.09,18.42-8.92,25.86l6.67,5.23.42-.54c.18-.24.36-.47.54-.71.31-.42.62-.85.92-1.29h0Zm-41.54,13.37c-23.12,0-41.92-18.81-41.92-41.92S39.75,8.49,62.86,8.49c10.03,0,19.74,3.6,27.34,10.14.2.17.4.35.6.53l.17.15,4.83-7.06s-.04-.04-.07-.06C86.6,4.33,74.93,0,62.86,0,35.06,0,12.45,22.62,12.45,50.41s22.62,50.41,50.41,50.41c10.99,0,21.39-3.46,30.14-10.01l-5.81-6.25c-7.12,5.09-15.49,7.78-24.33,7.78l.02.03Z"/>
  </g>
</svg>